<svg width="191" height="41" viewBox="0 0 191 41" fill="none" xmlns="http://www.w3.org/2000/svg">
<path d="M165.561 5.74218V0.417603H190.648V5.74218H181.296V30.9631H174.913V5.74218H165.561Z" fill="#3B3636"/>
<path d="M147.354 39.554C146.548 39.554 145.793 39.4894 145.087 39.3601C144.391 39.2408 143.814 39.0867 143.357 38.8977L144.789 34.1548C145.534 34.3835 146.205 34.5078 146.802 34.5277C147.409 34.5476 147.931 34.4084 148.368 34.1101C148.816 33.8118 149.178 33.3047 149.457 32.5888L149.83 31.6193L141.612 8.05399H148.294L153.036 24.8778H153.275L158.063 8.05399H164.789L155.885 33.4389C155.458 34.6719 154.876 35.7458 154.14 36.6605C153.414 37.5852 152.495 38.2962 151.381 38.7933C150.267 39.3004 148.925 39.554 147.354 39.554Z" fill="#F0C95D"/>
<path d="M125.548 30.9631V8.05399H131.708V12.0511H131.947C132.365 10.6293 133.066 9.55541 134.05 8.82956C135.034 8.09376 136.168 7.72586 137.45 7.72586C137.769 7.72586 138.112 7.74575 138.48 7.78552C138.847 7.82529 139.171 7.87998 139.449 7.94958V13.5874C139.151 13.4979 138.738 13.4183 138.211 13.3487C137.684 13.2791 137.202 13.2443 136.764 13.2443C135.83 13.2443 134.994 13.4482 134.259 13.8558C133.533 14.2536 132.956 14.8104 132.529 15.5263C132.111 16.2422 131.902 17.0675 131.902 18.0021V30.9631H125.548Z" fill="#F0C95D"/>
<path d="M104.053 40.0312C101.995 40.0312 100.23 39.7479 98.7585 39.1811C97.2969 38.6243 96.1335 37.8636 95.2684 36.8991C94.4034 35.9347 93.8416 34.8508 93.5831 33.6477L99.4595 32.8572C99.6385 33.3146 99.9218 33.7422 100.31 34.1399C100.697 34.5376 101.209 34.8558 101.846 35.0945C102.492 35.343 103.278 35.4673 104.202 35.4673C105.584 35.4673 106.723 35.1293 107.618 34.4531C108.523 33.7869 108.975 32.6683 108.975 31.0973V26.9062H108.707C108.428 27.5426 108.011 28.1442 107.454 28.7109C106.897 29.2777 106.181 29.7401 105.306 30.098C104.431 30.456 103.387 30.6349 102.174 30.6349C100.454 30.6349 98.8878 30.2372 97.4758 29.4418C96.0738 28.6364 94.9552 27.4084 94.12 25.7578C93.2947 24.0973 92.8821 21.9993 92.8821 19.4638C92.8821 16.8686 93.3047 14.701 94.1498 12.9609C94.995 11.2209 96.1186 9.91832 97.5206 9.05326C98.9325 8.1882 100.479 7.75568 102.159 7.75568C103.442 7.75568 104.516 7.97443 105.381 8.41193C106.246 8.83948 106.942 9.37641 107.469 10.0227C108.006 10.6591 108.418 11.2855 108.707 11.902H108.945V8.05397H115.254V31.1868C115.254 33.1356 114.777 34.7663 113.822 36.0788C112.868 37.3913 111.545 38.3757 109.855 39.032C108.175 39.6981 106.241 40.0312 104.053 40.0312ZM104.187 25.8622C105.212 25.8622 106.077 25.6087 106.783 25.1016C107.499 24.5845 108.045 23.8487 108.423 22.8942C108.811 21.9297 109.005 20.7763 109.005 19.4339C109.005 18.0916 108.816 16.9283 108.438 15.9439C108.06 14.9496 107.513 14.179 106.798 13.6321C106.082 13.0852 105.212 12.8118 104.187 12.8118C103.143 12.8118 102.263 13.0952 101.548 13.6619C100.832 14.2187 100.29 14.9943 99.9219 15.9886C99.554 16.9829 99.37 18.1314 99.37 19.4339C99.37 20.7564 99.554 21.8999 99.9219 22.8643C100.3 23.8189 100.842 24.5597 101.548 25.0866C102.263 25.6037 103.143 25.8622 104.187 25.8622Z" fill="#F0C95D"/>
<path d="M119.358 10.4245C119.491 10.5021 119.445 10.679 119.318 10.7285C117.923 11.2809 116.467 11.8611 115.407 12.9659C114.674 13.7309 114.148 14.639 113.266 15.2351C113.272 15.2371 113.277 15.239 113.283 15.2411C113.48 15.7061 113.655 16.1731 113.81 16.6301C114.492 18.6509 115.1 21.234 114.336 23.3085C113.693 25.0551 112.196 26.3427 110.525 27.0778C108.371 28.0277 105.923 28.1449 103.601 28.115C101.297 28.0872 98.9389 27.7772 96.8823 26.6763C95.1159 25.7325 93.6593 24.2084 93.089 22.2592C92.4731 20.1509 93.2698 18.2116 94.1779 16.3219C94.3825 15.8986 94.5971 15.4614 94.8237 15.0243C94.9172 15.0064 92.946 14.1699 92.171 13.2736C91.2033 12.159 90.5378 10.6726 88.9918 10.2633C88.8686 10.2314 88.8388 10.0468 88.956 9.98515C91.8054 8.49493 95.4974 8.48697 97.8082 10.9488L97.8042 10.917C97.8817 10.8515 97.9593 10.7838 98.0387 10.7222C99.5826 9.50625 101.709 8.96363 104.01 8.97565C104.693 8.96768 105.361 8.99353 106.007 9.06897C106.026 9.06295 106.05 9.06701 106.068 9.07498C107.515 9.25184 108.85 9.68297 109.999 10.5712C110.106 10.6546 110.211 10.744 110.316 10.8336C112.54 8.06997 116.651 8.82102 119.358 10.4245ZM115.914 12.0838C116.808 11.4022 117.851 10.9592 118.889 10.5419C116.065 8.98602 112.814 8.54092 110.426 11.0725C110.426 11.0745 110.271 11.2156 110.132 11.0745C109.802 10.7804 109.444 10.5141 109.057 10.2896C108.935 10.22 108.82 10.1584 108.705 10.0989C108.703 10.1108 108.701 10.1228 108.693 10.1347C107.455 12.3005 106.319 14.5101 105.303 16.7892C105.252 16.9045 105.107 16.8269 105.094 16.7316C104.932 15.4461 105.224 14.1067 105.395 12.8311C105.552 11.6647 105.707 10.4944 105.915 9.336C105.581 9.30218 105.212 9.27438 104.798 9.24854C104.542 12.3543 104.22 15.456 103.879 18.5538C103.869 18.6452 103.721 18.685 103.706 18.5777C103.241 15.4978 102.851 12.3741 102.744 9.25845C102.392 9.29617 102.041 9.35177 101.691 9.42736C102.13 11.8793 102.337 14.393 102.533 16.8728C102.543 16.994 102.376 16.994 102.339 16.8986C101.444 14.6373 100.419 12.4437 99.2767 10.2977C98.7581 10.5739 98.0825 10.9554 97.8082 11.2713C95.5093 9.03395 92.2247 8.82327 89.419 10.103C90.2476 10.4647 90.8398 11.0787 91.4021 11.8157C92.4592 13.2027 93.4348 14.4883 95.2371 14.8261C94.9213 15.3466 94.2278 16.8271 93.8383 17.755C92.962 19.8434 92.8606 21.9158 94.1343 23.8851C95.249 25.6058 97.1108 26.7067 99.0483 27.267C101.099 27.8612 103.279 27.9148 105.399 27.8233C107.517 27.7339 109.776 27.4239 111.57 26.2058C113.365 24.9897 114.444 23.1895 114.354 20.9898C114.279 19.0743 113.774 17.1489 113.007 15.3864C112.88 15.1162 113.007 15.009 113.166 14.9155C114.416 14.188 114.772 12.9521 115.914 12.0838ZM108.483 10.0133C108.489 10.0053 108.494 10.0014 108.499 9.99342C107.737 9.62586 107.046 9.45891 106.08 9.35162C105.927 10.5796 105.736 11.7997 105.582 13.0257C105.446 14.0967 105.226 15.2075 105.281 16.2944C106.247 14.1503 107.306 12.05 108.483 10.0133ZM104.556 9.23231C104.471 9.2263 104.387 9.22239 104.298 9.21638C103.841 9.18858 103.368 9.20045 102.891 9.24418C103.006 10.7206 103.092 12.197 103.245 13.6693C103.32 14.4244 103.41 15.1755 103.505 15.9286C103.569 16.4213 103.634 16.9142 103.706 17.407C103.712 17.4507 103.73 17.572 103.745 17.703C103.785 17.1288 103.944 16.2027 103.962 16.0219C104.031 15.3086 104.095 14.5932 104.159 13.8798C104.3 12.3301 104.429 10.7822 104.556 9.23231ZM102.392 16.4989C102.333 16.4989 101.667 10.4702 101.562 9.45681C100.844 9.62181 100.141 9.8681 99.4893 10.1919C100.071 11.2987 100.618 12.4234 101.138 13.564C101.24 13.7847 102.301 16.4989 102.392 16.4989Z" fill="#333333"/>
<path d="M118.889 10.5417C117.851 10.959 116.808 11.4022 115.914 12.0837C114.772 12.9521 114.416 14.1879 113.166 14.9152C113.007 15.0085 112.88 15.1158 113.007 15.3861C113.774 17.1486 114.279 19.074 114.354 20.9895C114.444 23.1892 113.365 24.9894 111.57 26.2055C109.776 27.4236 107.517 27.7335 105.399 27.823C103.278 27.9144 101.099 27.8607 99.048 27.2667C97.1106 26.7064 95.2488 25.6055 94.1341 23.8848C92.8604 21.9156 92.9617 19.8431 93.838 17.7547C94.2275 16.8268 94.921 15.3465 95.2369 14.8258C93.4347 14.488 92.459 13.2024 91.4019 11.8154C90.8396 11.0782 90.2473 10.4642 89.4188 10.1027C92.2244 8.82297 95.509 9.03365 97.808 11.271C98.0822 10.9551 98.7578 10.5736 99.2764 10.2974C100.419 12.4434 101.444 14.637 102.338 16.8983C102.376 16.9937 102.543 16.9937 102.533 16.8724C102.337 14.3925 102.13 11.879 101.691 9.42705C102.04 9.35147 102.392 9.29587 102.744 9.25815C102.851 12.3738 103.241 15.4975 103.705 18.5774C103.721 18.6847 103.868 18.645 103.878 18.5535C104.22 15.4557 104.542 12.354 104.798 9.24823C105.211 9.27408 105.581 9.30188 105.915 9.33569C105.706 10.4941 105.551 11.6644 105.394 12.8308C105.223 14.1064 104.931 15.4458 105.094 16.7313C105.106 16.8268 105.251 16.9041 105.303 16.7889C106.318 14.5098 107.455 12.3002 108.693 10.1344C108.701 10.1225 108.703 10.1105 108.705 10.0986C108.82 10.1583 108.935 10.2199 109.056 10.2893C109.444 10.5138 109.802 10.7801 110.131 11.0742C110.271 11.2153 110.426 11.0742 110.426 11.0722C112.814 8.54091 116.065 8.98601 118.889 10.5417Z" fill="#F0C95D"/>
<path d="M108.498 9.99343C108.495 10.0014 108.488 10.0053 108.482 10.0133C107.306 12.05 106.247 14.1503 105.281 16.2942C105.226 15.2073 105.446 14.0965 105.582 13.0256C105.736 11.7995 105.927 10.5795 106.08 9.35148C107.046 9.45892 107.737 9.62587 108.498 9.99343Z" fill="#E17E45"/>
<path d="M104.298 9.21654C104.387 9.22255 104.471 9.22645 104.556 9.23246C104.429 10.7823 104.3 12.3303 104.159 13.8801C104.095 14.5935 104.032 15.3089 103.962 16.0222C103.944 16.203 103.785 17.129 103.746 17.7033C103.73 17.5721 103.712 17.451 103.706 17.4073C103.634 16.9145 103.569 16.4216 103.505 15.9289C103.41 15.1758 103.32 14.4247 103.245 13.6696C103.092 12.1973 103.007 10.7209 102.891 9.24449C103.368 9.20061 103.841 9.18874 104.298 9.21654Z" fill="#E17E45"/>
<path d="M101.562 9.45695C101.667 10.4704 102.333 16.499 102.392 16.499C102.301 16.499 101.24 13.7847 101.138 13.5643C100.618 12.4237 100.071 11.2991 99.4893 10.1922C100.141 9.86824 100.845 9.6218 101.562 9.45695Z" fill="#E17E45"/>
<path opacity="0.4" d="M105.324 9.80619C105.493 9.8128 105.662 9.82392 105.831 9.83564C105.859 9.66899 105.885 9.50204 105.915 9.33585C105.582 9.30204 105.212 9.27424 104.799 9.24839C104.784 9.43067 104.766 9.61264 104.751 9.79492C104.942 9.79552 105.133 9.79868 105.324 9.80619Z" fill="#F0C95D"/>
<path opacity="0.4" d="M102.774 9.9222C102.764 9.70086 102.752 9.47951 102.744 9.25816C102.392 9.29588 102.041 9.35148 101.691 9.42707C101.731 9.65292 101.768 9.87983 101.805 10.1066C102.125 10.0322 102.448 9.96834 102.774 9.9222Z" fill="#F0C95D"/>
<path opacity="0.4" d="M91.196 9.69694C92.4257 9.38543 93.7559 9.68507 94.9071 10.1485C96.015 10.5945 97.0918 11.2295 97.9535 12.0655C98.4501 11.6094 99.0042 11.2246 99.5982 10.9108C99.4918 10.706 99.3853 10.5012 99.2766 10.2973C98.758 10.5735 98.0824 10.955 97.8082 11.2709C95.5092 9.0335 92.2246 8.82283 89.4189 10.1025C89.59 10.1771 89.7486 10.265 89.9013 10.3599C90.2744 10.0445 90.7162 9.81836 91.196 9.69694Z" fill="#F0C95D"/>
<path opacity="0.4" d="M116.95 10.0045C116.383 10.3426 115.884 10.7634 115.431 11.2414C115.038 11.6566 114.648 12.0772 114.232 12.4703C113.874 12.8089 113.492 13.1222 113.078 13.391C112.612 13.6941 112.111 13.9366 111.598 14.1503C111.62 14.2599 111.643 14.3693 111.666 14.4786C111.907 15.6291 112.151 16.7802 112.312 17.9452C112.471 19.1021 112.554 20.2781 112.438 21.4433C112.326 22.5693 112.022 23.6769 111.45 24.6589C110.792 25.7884 109.822 26.6722 108.707 27.3378C108.634 27.3809 108.56 27.421 108.488 27.4628C109.584 27.2237 110.64 26.8375 111.571 26.2058C113.365 24.9897 114.444 23.1895 114.354 20.9898C114.279 19.0743 113.774 17.1489 113.007 15.3864C112.88 15.1162 113.007 15.0089 113.166 14.9155C114.416 14.1882 114.772 12.9522 115.914 12.084C116.808 11.4025 117.852 10.9593 118.889 10.542C118.372 10.2573 117.841 10.0102 117.303 9.81128C117.183 9.87229 117.065 9.93615 116.95 10.0045Z" fill="#F0C95D"/>
<path opacity="0.4" d="M107.864 10.0852C108.039 10.1159 108.212 10.1512 108.385 10.1868C108.418 10.1293 108.449 10.0707 108.482 10.0131C108.488 10.0052 108.494 10.0012 108.498 9.99328C107.737 9.62572 107.046 9.45877 106.08 9.35148C106.06 9.51723 106.037 9.68252 106.015 9.84797C106.635 9.89726 107.252 9.9778 107.864 10.0852Z" fill="#E17E45"/>
<path opacity="0.4" d="M104.509 9.79717C104.525 9.60888 104.541 9.42074 104.556 9.23245C104.471 9.22644 104.387 9.22253 104.298 9.21652C103.841 9.18872 103.368 9.20059 102.891 9.24432C102.908 9.46387 102.924 9.68341 102.94 9.90295C103.46 9.83668 103.985 9.80318 104.509 9.79717Z" fill="#E17E45"/>
<path opacity="0.4" d="M100.283 10.5874C100.722 10.4042 101.175 10.2607 101.636 10.1458C101.602 9.83953 101.576 9.5982 101.562 9.45695C100.845 9.62195 100.141 9.86824 99.4893 10.1921C99.5964 10.3958 99.7011 10.6008 99.8059 10.8058C99.9626 10.7287 100.121 10.6547 100.283 10.5874Z" fill="#E17E45"/>
<path d="M97.0501 11.7869C97.0798 11.8246 96.7043 12.1843 96.5632 12.3412C96.293 12.6413 95.8518 13.2771 95.7883 13.6011C95.52 13.7045 95.1941 13.5355 94.9438 13.4361C94.3039 13.1817 93.7237 12.7824 93.2547 12.2757C92.6864 11.6578 92.3923 10.7258 91.5161 10.4656C91.4187 10.4378 91.4267 10.3066 91.5161 10.2749C92.6428 9.88746 93.7496 9.90324 94.8643 10.3246C94.914 10.3444 94.9537 10.422 94.9 10.4637C94.8901 10.4717 94.2126 10.8731 94.0318 10.9864C95.1167 10.6783 96.0664 10.9466 96.5613 11.1652C96.1937 11.3281 95.9373 11.5448 95.8857 11.5765C96.1459 11.5984 96.4301 11.6361 96.6526 11.6778C96.8752 11.7173 97.0361 11.761 97.0501 11.7869ZM96.0884 12.5698C96.2751 12.2876 96.5057 12.0531 96.7599 11.8325C96.44 11.7869 95.9671 11.6914 95.6472 11.755C95.6213 11.5165 95.9195 11.2345 96.3129 11.2086C95.675 10.8749 94.3815 11.0279 94.0258 11.1272C93.9204 11.1569 93.8827 11.0218 93.9581 10.9643C94.0594 10.8868 94.59 10.5927 94.7232 10.4139C93.8429 9.99656 92.6705 10.0185 91.6909 10.3462C91.6909 10.3462 92.3068 10.5012 92.6845 11.153C93.1673 11.9855 94.5364 13.2514 95.5776 13.4382C95.7148 13.2335 95.7943 13.0129 96.0884 12.5698Z" fill="#333333"/>
<path d="M96.7599 11.8325C96.5055 12.0531 96.2749 12.2876 96.0883 12.5698C95.7942 13.0129 95.7147 13.2335 95.5777 13.4382C94.5365 13.2514 93.1674 11.9857 92.6846 11.153C92.3071 10.5013 91.691 10.3462 91.691 10.3462C92.6706 10.0183 93.843 9.99655 94.7233 10.4139C94.5901 10.5927 94.0595 10.8868 93.9582 10.9643C93.8827 11.0218 93.9205 11.1571 94.0259 11.1272C94.3816 11.0279 95.6751 10.8749 96.313 11.2086C95.9196 11.2345 95.6214 11.5167 95.6473 11.755C95.967 11.6914 96.4399 11.7869 96.7599 11.8325Z" fill="#DD87A8"/>
<path opacity="0.4" d="M95.6472 11.755C95.6214 11.5165 95.9195 11.2345 96.3129 11.2086C95.675 10.8749 94.3815 11.0278 94.0258 11.1272C93.9205 11.1569 93.8827 11.0218 93.9582 10.9643C94.0595 10.8867 94.5901 10.5927 94.7232 10.4138C93.8429 9.99655 92.6705 10.0185 91.6909 10.3462C91.6909 10.3462 91.9386 10.409 92.216 10.6206C92.6746 10.5339 93.1703 10.6176 93.6303 10.62C93.7193 10.6205 93.7574 10.7269 93.7006 10.7897C93.6234 10.8747 93.5974 10.9928 93.564 11.0997C93.5449 11.161 93.5233 11.2211 93.4984 11.2795C93.9792 11.2922 94.4584 11.3457 94.9397 11.3476C95.0186 11.3479 95.0586 11.4309 95.0255 11.4971C94.9522 11.6437 94.879 11.7902 94.8059 11.9365C95.1542 11.9528 95.4968 12.0102 95.8393 12.0787C95.9193 12.0948 95.9264 12.192 95.8831 12.2447C95.6697 12.505 95.5127 12.8168 95.3691 13.1193C95.3327 13.1959 95.2977 13.2733 95.264 13.3513C95.3707 13.3887 95.4761 13.4198 95.5776 13.438C95.7147 13.2333 95.7942 13.0128 96.0882 12.5696C96.275 12.2874 96.5055 12.053 96.7598 11.8324C96.44 11.7869 95.9671 11.6914 95.6472 11.755Z" fill="#DD87A8"/>
<path opacity="0.4" d="M94.9842 12.8666C94.7558 12.717 94.555 12.4816 94.3516 12.2972C94.1684 12.1311 93.9974 11.9553 93.8013 11.8042C93.7048 11.7298 93.5854 11.8707 93.6413 11.9642C93.7812 12.1983 93.9756 12.378 94.1891 12.545C94.427 12.7309 94.6757 12.8076 94.9385 12.9451C94.9904 12.9722 95.033 12.8987 94.9842 12.8666Z" fill="white"/>
<path d="M113.312 11.0914C113.242 11.0298 112.7 10.6623 112.698 10.6623C112.638 10.6166 112.638 10.5173 112.72 10.4953C113.246 10.3503 113.761 10.2609 114.31 10.2668C114.492 10.2687 114.854 10.2607 115.319 10.3939C115.176 10.2965 114.784 10.072 114.631 9.99056C114.546 9.94082 114.592 9.82556 114.679 9.81565C115.714 9.72023 116.656 9.87921 117.612 10.2866C117.701 10.3243 117.672 10.4674 117.586 10.4874C116.306 10.7853 115.541 11.0815 114.385 12.5161C113.88 13.142 113.684 13.5335 113.068 14.3084C113.002 14.3918 112.873 14.3043 112.841 14.217C112.475 13.1957 111.844 12.3532 111.053 11.6199C110.989 11.5622 110.908 11.4392 111.106 11.3715C111.619 11.1966 112.126 11.0615 112.668 11.0555C112.706 11.0557 113.239 11.0596 113.312 11.0914ZM116.074 10.7735C116.241 10.7079 117.366 10.3562 117.368 10.3363C116.61 9.95089 114.983 9.9031 114.854 9.927C115.09 10.0899 115.524 10.4178 115.619 10.4794C115.651 10.5429 115.579 10.6224 115.508 10.6065C114.936 10.4794 114.365 10.4137 113.781 10.4695C112.688 10.5729 113.113 10.7476 113.654 11.1589C113.731 11.2165 113.688 11.3358 113.586 11.3179C112.768 11.1609 112.022 11.2246 111.236 11.4609C111.601 11.7988 111.935 12.1544 112.229 12.5539C112.47 12.8777 112.804 13.4818 113.155 13.9607C113.821 12.7884 115.128 11.1412 116.074 10.7735Z" fill="#333333"/>
<path d="M115.611 10.4655C115.615 10.4695 115.617 10.4735 115.619 10.4795C115.524 10.4179 115.09 10.09 114.854 9.92713C114.983 9.90324 116.61 9.95102 117.368 10.3365C117.366 10.3563 116.241 10.7081 116.074 10.7736C115.128 11.1412 113.821 12.7884 113.155 13.9608C112.803 13.4819 112.469 12.8778 112.229 12.554C111.935 12.1546 111.601 11.7989 111.235 11.4611C112.022 11.2247 112.767 11.161 113.586 11.318C113.687 11.3359 113.731 11.2167 113.654 11.159C113.113 10.7478 112.688 10.5728 113.781 10.4696C114.365 10.414 114.935 10.4795 115.508 10.6066C115.579 10.6226 115.651 10.5431 115.619 10.4795C115.645 10.4973 115.647 10.4953 115.611 10.4655Z" fill="#DD87A8"/>
<path d="M115.611 10.4655C115.647 10.4954 115.645 10.4975 115.619 10.4796C115.617 10.4735 115.615 10.4695 115.611 10.4655Z" fill="#333333"/>
<path opacity="0.4" d="M116.744 10.2395C116.333 10.3736 115.927 10.5262 115.547 10.7332C115.134 10.9577 114.774 11.256 114.406 11.5449C113.771 12.0429 113.18 12.5927 112.652 13.2022C112.809 13.4527 112.98 13.7223 113.155 13.9608C113.821 12.7884 115.128 11.1411 116.074 10.7736C116.241 10.7081 117.366 10.3563 117.368 10.3365C117.246 10.2744 117.1 10.2221 116.943 10.1764C116.877 10.1972 116.81 10.2179 116.744 10.2395Z" fill="#DD87A8"/>
<path opacity="0.4" d="M112.92 11.518C112.632 11.4409 112.322 11.483 112.049 11.5971C111.958 11.6352 111.954 11.7999 112.075 11.7891C112.347 11.7649 112.615 11.775 112.887 11.7684C113.028 11.7651 113.062 11.556 112.92 11.518Z" fill="white"/>
<path d="M110.303 18.4583C110.378 18.2893 110.622 18.4145 110.587 18.5776C110.247 20.1513 108.202 21.6872 106.585 21.0315C106.495 20.9937 106.511 20.8765 106.609 20.8645C107.507 20.7473 108.284 20.7632 109.057 20.2008C109.679 19.7479 109.999 19.1459 110.303 18.4583Z" fill="#333333"/>
<path d="M109.756 21.7628C109.782 21.8781 109.776 21.9933 109.74 22.1105C109.711 22.1782 109.683 22.2477 109.653 22.3172C109.607 22.3947 109.549 22.4583 109.486 22.5179C109.478 22.5278 109.47 22.5378 109.464 22.5477C109.404 22.5914 109.345 22.6371 109.287 22.6828C109.097 22.806 109.148 22.7444 109.073 22.7741C108.995 22.784 108.918 22.794 108.842 22.8039C108.723 22.8079 108.612 22.784 108.508 22.7304C108.435 22.7085 108.371 22.6728 108.318 22.619C108.222 22.5574 108.149 22.476 108.095 22.3747C108.093 22.3747 108.093 22.3728 108.091 22.3707C108.063 22.3011 108.034 22.2315 108.004 22.1621C107.968 22.0449 107.962 21.9296 107.988 21.8124C107.994 21.6971 108.027 21.5879 108.091 21.4886C108.135 21.417 108.186 21.3515 108.244 21.2919C108.246 21.2878 108.25 21.2839 108.254 21.28C108.314 21.2343 108.373 21.1906 108.431 21.1449C108.433 21.143 108.437 21.141 108.439 21.1389C108.51 21.0932 108.592 21.0654 108.671 21.0396C108.787 21.0038 108.902 20.9978 109.017 21.0236C109.132 21.0296 109.242 21.0633 109.341 21.127C109.399 21.1727 109.458 21.2184 109.516 21.2642C109.601 21.3418 109.661 21.4351 109.697 21.5445C109.736 21.6118 109.756 21.6853 109.756 21.7628Z" fill="#333333"/>
<path d="M101.303 20.8648C101.399 20.8767 101.415 20.9939 101.325 21.0318C99.7076 21.6876 97.6631 20.1515 97.3233 18.5779C97.2876 18.415 97.5319 18.2898 97.6075 18.4586C97.9115 19.1461 98.2314 19.7482 98.8534 20.2012C99.6283 20.7636 100.403 20.7476 101.303 20.8648Z" fill="#333333"/>
<path d="M99.9222 21.8124C99.9481 21.9296 99.9421 22.0449 99.9063 22.1621C99.8766 22.2317 99.8488 22.3012 99.8189 22.3707C99.8169 22.3726 99.8169 22.3747 99.8149 22.3747C99.7613 22.476 99.6878 22.5574 99.5924 22.6191C99.5387 22.6727 99.4752 22.7085 99.4016 22.7304C99.2982 22.784 99.187 22.8079 99.0678 22.8039C98.9922 22.794 98.9148 22.784 98.8373 22.7741C98.7619 22.7444 98.8134 22.806 98.6247 22.6828C98.565 22.6371 98.5053 22.5914 98.4478 22.5477C98.4398 22.5378 98.4319 22.5278 98.4239 22.5179C98.3603 22.4583 98.3026 22.3947 98.257 22.3172C98.2272 22.2476 98.1994 22.178 98.1695 22.1105C98.1337 21.9933 98.1277 21.8781 98.1536 21.7628C98.1536 21.6853 98.1734 21.6118 98.2132 21.5443C98.249 21.4351 98.3086 21.3416 98.394 21.2641C98.4517 21.2184 98.5112 21.1727 98.5689 21.1269C98.6682 21.0633 98.7776 21.0295 98.8927 21.0235C99.008 20.9976 99.1233 21.0037 99.2385 21.0394C99.318 21.0653 99.3994 21.0931 99.471 21.1387C99.4729 21.1407 99.477 21.1427 99.4789 21.1448C99.5386 21.1904 99.5962 21.2342 99.6558 21.2799C99.6597 21.2838 99.6638 21.2878 99.6677 21.2917C99.7233 21.3514 99.775 21.4169 99.8187 21.4884C99.8826 21.5879 99.9164 21.6971 99.9222 21.8124Z" fill="#333333"/>
<path d="M104.987 21.6766C105.052 21.6985 105.116 21.7759 105.086 21.8494C104.893 22.3362 104.653 22.7952 104.335 23.2105C104.182 23.4092 103.987 23.6894 103.731 23.7769C103.771 24.1326 103.701 24.5559 103.938 24.836C104.287 25.2533 104.552 24.8698 104.834 24.8002C104.933 24.7744 104.931 24.9056 104.858 24.973C104.685 25.1359 104.52 25.2135 104.315 25.2373C104.144 25.2572 103.981 25.1798 103.858 25.0684C103.727 24.9472 103.654 24.8041 103.612 24.6511C103.616 24.83 103.634 25.0307 103.498 25.1618C103.196 25.4539 102.654 25.3983 102.328 25.1538C102.272 25.112 102.304 25.0267 102.376 25.0405C102.827 25.1319 103.363 25.2988 103.365 24.6312C103.365 24.3431 103.351 24.051 103.365 23.7608C103.053 23.6436 102.763 23.3017 102.58 23.0912C102.294 22.7633 102.175 22.5547 101.931 22.1235C101.835 21.8731 102.056 21.7757 102.175 21.7241C102.175 21.7241 103.993 21.3209 104.987 21.6766ZM104.762 21.903C103.9 21.6307 103.014 21.6645 102.175 22.0282C102.453 22.4813 102.739 23.0336 103.19 23.292C103.959 23.731 104.512 22.519 104.762 21.903Z" fill="#333333"/>
<path d="M102.175 22.0282C103.013 21.6646 103.9 21.6307 104.762 21.903C104.512 22.519 103.959 23.7311 103.19 23.292C102.739 23.0337 102.453 22.4813 102.175 22.0282Z" fill="#884941"/>
<path opacity="0.4" d="M102.175 22.0282C102.232 22.1215 102.29 22.2193 102.35 22.3176C102.582 22.2033 102.838 22.0996 103.094 22.1041C103.263 22.1069 103.421 22.1735 103.512 22.3196C103.601 22.4608 103.611 22.6425 103.6 22.8042C103.586 22.9998 103.543 23.1934 103.485 23.383C104.1 23.4176 104.545 22.4371 104.762 21.9029C103.9 21.6307 103.013 21.6646 102.175 22.0282Z" fill="#884941"/>
<path opacity="0.4" d="M103.243 22.8449C103.163 22.7902 103.101 22.7208 103.053 22.6372C103.01 22.563 102.981 22.4383 102.89 22.4174C102.86 22.4106 102.82 22.4154 102.8 22.4411C102.797 22.444 102.795 22.4468 102.793 22.4496C102.769 22.4793 102.748 22.5205 102.764 22.56C102.844 22.7609 102.987 22.8975 103.187 22.9788C103.268 23.012 103.308 22.8889 103.243 22.8449Z" fill="white"/>
<path d="M69.1971 17.7188V30.9631H62.8434V8.05398H68.8988V12.0959H69.1672C69.6743 10.7635 70.5245 9.70952 71.7177 8.93395C72.9108 8.14844 74.3576 7.75568 76.0579 7.75568C77.6488 7.75568 79.0359 8.10369 80.2191 8.79972C81.4023 9.49574 82.3221 10.4901 82.9783 11.7827C83.6346 13.0653 83.9627 14.5966 83.9627 16.3764V30.9631H77.609V17.5099C77.619 16.108 77.261 15.0142 76.5351 14.2287C75.8093 13.4332 74.81 13.0355 73.5373 13.0355C72.6822 13.0355 71.9265 13.2195 71.2702 13.5874C70.6239 13.9553 70.1168 14.4922 69.7489 15.1982C69.391 15.8942 69.207 16.7344 69.1971 17.7188Z" fill="#F0C95D"/>
<path d="M36.8097 30.9631H29.8892L40.434 0.417614H48.7564L59.2862 30.9631H52.3658L44.7145 7.39773H44.4759L36.8097 30.9631ZM36.3771 18.9567H52.7237V23.9979H36.3771V18.9567Z" fill="#F0C95D"/>
<path d="M27.4879 11.1115H20.9553C20.8359 10.2663 20.5923 9.51562 20.2244 8.85937C19.8565 8.19318 19.3842 7.62642 18.8075 7.15909C18.2308 6.69176 17.5646 6.33381 16.809 6.08523C16.0632 5.83665 15.2528 5.71236 14.3778 5.71236C12.7969 5.71236 11.4197 6.10511 10.2464 6.89062C9.07315 7.66619 8.16335 8.79972 7.51705 10.2912C6.87074 11.7727 6.54759 13.5724 6.54759 15.6903C6.54759 17.8679 6.87074 19.6974 7.51705 21.179C8.1733 22.6605 9.08807 23.7791 10.2614 24.5348C11.4347 25.2905 12.7919 25.6683 14.3331 25.6683C15.1982 25.6683 15.9986 25.554 16.7344 25.3253C17.4801 25.0966 18.1413 24.7635 18.718 24.326C19.2947 23.8786 19.772 23.3367 20.1499 22.7003C20.5376 22.0639 20.8061 21.3381 20.9553 20.5227L27.4879 20.5526C27.3189 21.9545 26.8963 23.3068 26.2202 24.6094C25.554 25.902 24.6541 27.0604 23.5206 28.0845C22.397 29.0987 21.0547 29.9041 19.4936 30.5007C17.9425 31.0874 16.1875 31.3807 14.2287 31.3807C11.5043 31.3807 9.06818 30.7642 6.92045 29.5312C4.78267 28.2983 3.09233 26.5135 1.84943 24.1768C0.616477 21.8402 0 19.0114 0 15.6903C0 12.3594 0.62642 9.52557 1.87926 7.18892C3.1321 4.85227 4.83239 3.07244 6.98011 1.84943C9.12784 0.616477 11.544 0 14.2287 0C15.9986 0 17.6392 0.248579 19.1506 0.745738C20.6719 1.2429 22.0192 1.96875 23.1925 2.92329C24.3658 3.8679 25.3203 5.02628 26.0561 6.39844C26.8018 7.7706 27.2791 9.34162 27.4879 11.1115Z" fill="#3B3636"/>
</svg>
