<svg width="1440" height="576" viewBox="0 0 1440 576" fill="none" xmlns="http://www.w3.org/2000/svg">
<mask id="mask0_1_764" style="mask-type:alpha" maskUnits="userSpaceOnUse" x="0" y="0" width="1440" height="576">
<rect width="1440" height="576" fill="#D9D9D9" fill-opacity="0.6"/>
</mask>
<g mask="url(#mask0_1_764)">
<path d="M329.732 120.623C323.467 114.935 322.998 105.205 328.686 98.9404C334.377 92.6754 344.104 92.2103 350.369 97.8929L347.677 100.86C343.046 96.6573 335.857 96.999 331.651 101.632C327.447 106.263 327.792 113.454 332.423 117.661L329.732 120.623Z" fill="#FFA2A2" fill-opacity="0.4"/>
<path d="M398.214 69.0633L396.537 66.764C398.274 65.496 399.415 63.6274 399.747 61.502C400.078 59.3746 399.563 57.2471 398.295 55.506C395.674 51.9225 390.622 51.1297 387.035 53.7506L385.358 51.4513C390.212 47.9082 397.047 48.976 400.592 53.8295C402.309 56.1814 403.007 59.0632 402.558 61.9409C402.109 64.8165 400.566 67.3464 398.214 69.0633Z" fill="#FFA2A2" fill-opacity="0.4"/>
<path d="M164.679 125.519L162.361 121.918C167.991 118.296 169.628 110.767 166.006 105.137C162.382 99.5047 154.857 97.8666 149.227 101.493L146.911 97.8868C154.527 92.9929 164.711 95.2033 169.611 102.817C174.507 110.437 172.297 120.619 164.679 125.519Z" fill="#FFA2A2" fill-opacity="0.4"/>
<path d="M80.4475 119.276C73.1511 113.252 72.1116 102.417 78.132 95.1224C81.0481 91.5874 85.1675 89.3993 89.7297 88.9605C94.2981 88.5277 98.7531 89.8907 102.288 92.8048L99.4387 96.2569C96.8259 94.1011 93.5336 93.088 90.1585 93.4156C86.7853 93.7391 83.7418 95.357 81.586 97.9697C77.135 103.363 77.9035 111.373 83.2989 115.824L80.4475 119.276Z" fill="#FFA2A2" fill-opacity="0.4"/>
<path d="M242.83 32.211C243.172 32.211 243.518 32.2393 243.858 32.298C247.105 32.8602 249.292 35.9603 248.729 39.2101C248.232 42.0838 245.759 44.1708 242.847 44.1708C242.505 44.1708 242.159 44.1384 241.819 44.0818C238.569 43.5196 236.383 40.4174 236.946 37.1717C237.445 34.296 239.918 32.211 242.83 32.211ZM242.83 29.5436C238.701 29.5436 235.049 32.5123 234.321 36.7167C233.508 41.4225 236.66 45.8958 241.366 46.7108C241.866 46.7957 242.361 46.8382 242.849 46.8382C246.976 46.8382 250.63 43.8715 251.358 39.6652C252.171 34.9613 249.016 30.486 244.313 29.6731C243.815 29.5841 243.32 29.5436 242.83 29.5436Z" fill="#FFA2A2" fill-opacity="0.4"/>
<path d="M117.867 266.349C118.646 266.349 119.398 266.527 120.106 266.874C121.321 267.473 122.231 268.51 122.668 269.793C123.103 271.077 123.014 272.45 122.417 273.665C121.556 275.414 119.808 276.5 117.859 276.5C117.08 276.5 116.328 276.325 115.624 275.977C113.115 274.739 112.077 271.689 113.313 269.182C114.17 267.435 115.918 266.349 117.867 266.349ZM117.867 264.086C115.161 264.086 112.557 265.59 111.281 268.181C109.491 271.817 110.985 276.215 114.621 278.007C115.665 278.521 116.767 278.763 117.857 278.763C120.563 278.763 123.167 277.259 124.446 274.666C126.235 271.032 124.739 266.632 121.107 264.842C120.061 264.328 118.955 264.086 117.867 264.086Z" fill="#FFA2A2" fill-opacity="0.4"/>
<path d="M254.022 304.963L270.35 313.046L273.683 330.955L257.353 322.874L254.022 304.963ZM247.966 296.956L253.351 325.903L279.738 338.961L274.352 310.02L247.966 296.956Z" fill="#FFA2A2" fill-opacity="0.4"/>
<path d="M122.015 158.282L123.295 169.065L115.439 176.559L114.157 165.777L122.015 158.282ZM124.042 152.652L111.344 164.764L113.415 182.188L126.11 170.078L124.042 152.652Z" fill="#FFA2A2" fill-opacity="0.4"/>
<path d="M9.90806 45.8837L18.5169 50.6522L19.8678 60.3996L11.2589 55.6331L9.90806 45.8837ZM6.84027 41.4124L9.0223 57.166L22.9356 64.8729L20.7535 49.1214L6.84027 41.4124Z" fill="#FFA2A2" fill-opacity="0.4"/>
<path d="M45.6844 294.687L41.658 302.932L32.6447 304.659L36.6711 296.414L45.6844 294.687ZM49.7006 291.615L35.1361 294.406L28.6305 307.73L43.1929 304.94L49.7006 291.615Z" fill="#FFA2A2" fill-opacity="0.4"/>
<path d="M142.275 -11.0979L132.115 4.16428L113.807 5.19161L123.971 -10.0705L142.275 -11.0979ZM151.041 -16.1131L121.461 -14.4528L105.036 10.2069L134.62 8.54858L151.041 -16.1131Z" fill="#FFA2A2" fill-opacity="0.4"/>
<path d="M251.481 248.862C250.812 248.862 250.264 248.322 250.256 247.651C250.248 246.973 250.79 246.417 251.467 246.409C252.341 246.399 253.122 246.053 253.668 245.438C254.216 244.819 254.466 243.998 254.371 243.127C254.203 241.562 254.667 240.071 255.678 238.931C256.687 237.79 258.11 237.149 259.686 237.127C260.561 237.117 261.342 236.771 261.89 236.152C262.436 235.535 262.687 234.716 262.594 233.845C262.521 233.171 263.006 232.566 263.68 232.494C264.353 232.405 264.958 232.906 265.031 233.58C265.201 235.145 264.737 236.637 263.724 237.778C262.715 238.918 261.292 239.558 259.718 239.578C258.845 239.59 258.062 239.938 257.514 240.554C256.968 241.173 256.717 241.99 256.81 242.862C256.978 244.427 256.515 245.922 255.502 247.06C254.493 248.201 253.069 248.84 251.498 248.86C251.492 248.862 251.485 248.862 251.481 248.862Z" fill="#FFA2A2" fill-opacity="0.4"/>
<path d="M115.302 326.836C114.806 329.081 113.596 331.044 111.801 332.47C109.593 334.226 106.794 334.935 103.917 334.468C102.321 334.211 100.783 334.594 99.5872 335.544C98.3894 336.495 97.6695 337.908 97.5652 339.525C97.3633 342.438 96.0471 345.014 93.8329 346.77C91.625 348.525 88.8262 349.233 85.9517 348.764C84.7145 348.561 83.8741 347.396 84.0753 346.157C84.29 344.912 85.445 344.08 86.6826 344.28C88.2796 344.542 89.8152 344.162 91.0106 343.212C92.2089 342.259 92.93 340.84 93.0348 339.221C93.2353 336.314 94.5522 333.745 96.7601 331.99C98.9684 330.232 101.766 329.52 104.644 329.983C106.245 330.244 107.781 329.864 108.976 328.914C110.174 327.963 110.896 326.551 111 324.927C111.077 323.677 112.166 322.73 113.415 322.814C114.666 322.897 115.612 323.978 115.53 325.229C115.494 325.778 115.417 326.314 115.302 326.836Z" fill="#FFA2A2" fill-opacity="0.4"/>
<path d="M270.056 84.2224C269.783 84.2224 269.51 84.1253 269.296 83.9272L261.955 77.195C261.496 76.7744 261.465 76.0625 261.886 75.6055C262.307 75.1444 263.018 75.1141 263.477 75.5367L270.818 82.2689C271.277 82.6895 271.308 83.4014 270.887 83.8584C270.665 84.0991 270.361 84.2224 270.056 84.2224Z" fill="#FFA2A2" fill-opacity="0.4"/>
<path d="M29.8558 137.912C29.5282 137.912 29.2006 137.776 28.966 137.511L22.0134 129.643C21.5807 129.151 21.6272 128.401 22.1166 127.968C22.608 127.535 23.3562 127.582 23.793 128.071L30.7456 135.94C31.1784 136.431 31.1319 137.182 30.6425 137.614C30.416 137.815 30.1349 137.912 29.8558 137.912Z" fill="#FFA2A2" fill-opacity="0.4"/>
<path d="M136.886 56.9471C136.559 56.9471 136.231 56.8116 135.997 56.5467L129.044 48.678C128.611 48.1866 128.658 47.4363 129.147 47.0036C129.639 46.5708 130.387 46.6173 130.824 47.1067L137.776 54.9754C138.209 55.4668 138.162 56.2171 137.673 56.6499C137.447 56.8501 137.165 56.9471 136.886 56.9471Z" fill="#FFA2A2" fill-opacity="0.4"/>
<path d="M387.269 261.524C386.713 261.524 386.21 261.143 386.074 260.579L383.548 249.995C383.391 249.333 383.799 248.67 384.46 248.512C385.113 248.357 385.785 248.761 385.943 249.422L388.468 260.007C388.626 260.668 388.218 261.331 387.556 261.489C387.461 261.513 387.364 261.524 387.269 261.524Z" fill="#FFA2A2" fill-opacity="0.4"/>
<path d="M188.484 273.499C188.027 273.499 187.592 273.236 187.394 272.792L183.119 263.166C182.852 262.563 183.123 261.861 183.723 261.594C184.324 261.327 185.028 261.598 185.295 262.199L189.57 271.825C189.837 272.428 189.566 273.129 188.965 273.396C188.809 273.467 188.646 273.499 188.484 273.499Z" fill="#FFA2A2" fill-opacity="0.4"/>
<path d="M183.794 198.319C182.746 198.319 181.871 197.504 181.808 196.445C181.743 195.346 182.58 194.404 183.679 194.339L201.26 193.308C202.368 193.259 203.301 194.083 203.363 195.181C203.428 196.279 202.591 197.221 201.493 197.286L183.911 198.317C183.873 198.319 183.832 198.319 183.794 198.319Z" fill="#FFA2A2" fill-opacity="0.4"/>
<path d="M68.6428 222.299C68.1858 222.299 67.7652 222 67.6277 221.541L64.9845 212.57C64.8187 212.012 65.1403 211.423 65.7004 211.26C66.2545 211.09 66.8471 211.415 67.0129 211.976L69.656 220.946C69.8218 221.505 69.5003 222.093 68.9401 222.257C68.841 222.285 68.7419 222.299 68.6428 222.299Z" fill="#FFA2A2" fill-opacity="0.4"/>
<path d="M397.67 158.852C397.601 158.852 397.53 158.848 397.462 158.838L382.137 157.002C381.18 156.887 380.497 156.019 380.612 155.063C380.727 154.104 381.607 153.414 382.553 153.538L397.878 155.374C398.835 155.489 399.518 156.357 399.403 157.313C399.296 158.201 398.542 158.852 397.67 158.852Z" fill="#FFA2A2" fill-opacity="0.4"/>
<path d="M321.918 39.3599L318.708 36.1688L334.919 19.8611L351.224 36.0757L348.031 39.2871L334.937 26.2677L321.918 39.3599Z" fill="#FFA2A2" fill-opacity="0.4"/>
<path d="M251.733 166.768L248.821 165.105L255.61 153.239L243.745 146.452L245.41 143.542L260.187 151.993L251.733 166.768Z" fill="#FFA2A2" fill-opacity="0.4"/>
<path d="M157.292 324.926L148.489 312.619L150.912 310.885L157.982 320.768L167.863 313.694L169.598 316.121L157.292 324.926Z" fill="#FFA2A2" fill-opacity="0.4"/>
<path d="M342.11 280.731L335.952 269.184L324.405 275.342L322.894 272.511L337.274 264.844L344.941 279.223L342.11 280.731Z" fill="#FFA2A2" fill-opacity="0.4"/>
<path d="M324.9 190.121L309.084 174.44L312.172 171.324L324.872 183.916L337.462 171.213L340.579 174.303L324.9 190.121Z" fill="#FFA2A2" fill-opacity="0.4"/>
<path d="M1327.65 522.1L1327.3 519.366C1329.37 519.095 1331.21 518.038 1332.48 516.381C1333.75 514.727 1334.3 512.674 1334.03 510.608C1333.76 508.539 1332.7 506.697 1331.05 505.427C1329.39 504.155 1327.35 503.602 1325.27 503.873L1324.91 501.139C1327.71 500.767 1330.49 501.518 1332.72 503.238C1334.96 504.959 1336.4 507.447 1336.76 510.248C1337.13 513.047 1336.38 515.821 1334.66 518.058C1332.94 520.3 1330.45 521.734 1327.65 522.1Z" fill="#FFA2A2" fill-opacity="0.4"/>
<path d="M1089.93 381.707C1087.94 381.707 1086.05 380.991 1084.55 379.659C1082.92 378.217 1081.96 376.231 1081.83 374.061C1081.7 371.895 1082.42 369.806 1083.86 368.182C1085.3 366.558 1087.29 365.594 1089.46 365.462L1089.59 367.58C1087.99 367.675 1086.52 368.389 1085.45 369.59C1084.39 370.791 1083.85 372.334 1083.95 373.936C1084.04 375.539 1084.76 377.008 1085.96 378.073C1087.16 379.137 1088.7 379.671 1090.3 379.576L1090.43 381.693C1090.26 381.703 1090.1 381.707 1089.93 381.707Z" fill="#FFA2A2" fill-opacity="0.4"/>
<path d="M945.411 427.079C942.626 427.079 939.9 425.694 938.31 423.166L940.159 422.006C941.038 423.403 942.412 424.376 944.023 424.742C945.631 425.11 947.293 424.825 948.693 423.945C951.581 422.129 952.452 418.299 950.634 415.409L952.483 414.248C954.942 418.157 953.763 423.334 949.856 425.793C948.474 426.665 946.933 427.079 945.411 427.079Z" fill="#FFA2A2" fill-opacity="0.4"/>
<path d="M1403.83 392.054C1406.29 392.054 1408.5 393.413 1409.61 395.601C1410.39 397.142 1410.52 398.895 1409.99 400.533C1409.45 402.177 1408.3 403.508 1406.76 404.288C1405.84 404.752 1404.87 404.988 1403.85 404.988C1401.39 404.988 1399.18 403.629 1398.07 401.441C1396.46 398.262 1397.74 394.363 1400.92 392.751C1401.84 392.288 1402.82 392.054 1403.83 392.054ZM1403.83 389.17C1402.41 389.17 1400.97 389.493 1399.62 390.179C1395.01 392.513 1393.17 398.141 1395.5 402.745C1397.15 405.997 1400.43 407.872 1403.85 407.872C1405.27 407.872 1406.71 407.548 1408.06 406.861C1412.67 404.531 1414.52 398.903 1412.18 394.296C1410.54 391.045 1407.25 389.17 1403.83 389.17Z" fill="#FFA2A2" fill-opacity="0.4"/>
<path d="M1035.02 573.636C1035.21 573.636 1035.39 573.646 1035.58 573.664C1036.96 573.81 1038.2 574.485 1039.07 575.565C1039.95 576.643 1040.35 577.998 1040.2 579.377C1039.92 582.033 1037.7 584.031 1035.04 584.031C1034.86 584.031 1034.67 584.02 1034.49 584.002C1031.64 583.703 1029.57 581.139 1029.87 578.291C1030.14 575.634 1032.36 573.636 1035.02 573.636ZM1035.02 571.319C1031.23 571.319 1027.97 574.188 1027.56 578.045C1027.13 582.172 1030.12 585.869 1034.25 586.304C1034.51 586.334 1034.78 586.346 1035.04 586.346C1038.84 586.346 1042.1 583.476 1042.51 579.62C1042.94 575.493 1039.95 571.796 1035.82 571.361C1035.55 571.331 1035.29 571.319 1035.02 571.319Z" fill="#FFA2A2" fill-opacity="0.4"/>
<path d="M1445.93 534.248C1448.33 534.248 1450.48 535.862 1451.15 538.169C1451.98 541.049 1450.32 544.072 1447.44 544.906C1446.94 545.051 1446.43 545.124 1445.92 545.124C1443.52 545.124 1441.38 543.51 1440.71 541.203C1439.87 538.323 1441.53 535.3 1444.41 534.467C1444.91 534.321 1445.42 534.248 1445.93 534.248ZM1445.93 531.821C1445.21 531.821 1444.47 531.923 1443.74 532.135C1439.56 533.346 1437.17 537.708 1438.38 541.876C1439.38 545.314 1442.51 547.549 1445.92 547.549C1446.65 547.549 1447.39 547.448 1448.12 547.235C1452.29 546.024 1454.69 541.662 1453.48 537.494C1452.48 534.058 1449.34 531.821 1445.93 531.821Z" fill="#FFA2A2" fill-opacity="0.4"/>
<path d="M1325.87 429.035C1327.04 429.035 1328.17 429.284 1329.24 429.769C1331.22 430.669 1332.73 432.285 1333.49 434.323C1334.25 436.36 1334.18 438.572 1333.28 440.548C1331.96 443.448 1329.05 445.323 1325.86 445.323C1324.7 445.323 1323.57 445.076 1322.5 444.589C1318.41 442.732 1316.6 437.893 1318.46 433.81C1319.78 430.91 1322.69 429.035 1325.87 429.035ZM1325.87 425.405C1321.4 425.405 1317.12 427.969 1315.15 432.305C1312.46 438.224 1315.07 445.203 1320.99 447.895C1322.58 448.613 1324.23 448.953 1325.86 448.953C1330.33 448.953 1334.61 446.388 1336.58 442.053C1339.27 436.135 1336.66 429.152 1330.74 426.463C1329.16 425.745 1327.5 425.405 1325.87 425.405Z" fill="#FFA2A2" fill-opacity="0.4"/>
<path d="M1201.47 494.549C1205.2 494.549 1208.56 496.903 1209.84 500.405C1211.52 505.016 1209.13 510.136 1204.52 511.817C1203.54 512.177 1202.51 512.359 1201.48 512.359C1197.75 512.359 1194.39 510.005 1193.11 506.502C1192.3 504.268 1192.4 501.849 1193.4 499.693C1194.41 497.542 1196.19 495.906 1198.42 495.091C1199.41 494.731 1200.43 494.549 1201.47 494.549ZM1201.47 490.577C1200.01 490.577 1198.52 490.83 1197.06 491.36C1190.38 493.792 1186.94 501.18 1189.38 507.861C1191.28 513.087 1196.22 516.331 1201.47 516.331C1202.93 516.331 1204.42 516.078 1205.88 515.548C1212.55 513.115 1216 505.726 1213.56 499.046C1211.66 493.819 1206.73 490.577 1201.47 490.577Z" fill="#FFA2A2" fill-opacity="0.4"/>
<path d="M1135.63 457.687L1143.86 466.779L1131.64 467.903L1123.42 458.809L1135.63 457.687ZM1136.86 454.54L1117.13 456.352L1130.42 471.048L1150.15 469.234L1136.86 454.54Z" fill="#FFA2A2" fill-opacity="0.4"/>
<path d="M1036.34 451.452L1045.26 454.595L1048.1 463.612L1039.18 460.469L1036.34 451.452ZM1032.73 447.707L1037.31 462.281L1051.72 467.357L1047.13 452.787L1032.73 447.707Z" fill="#FFA2A2" fill-opacity="0.4"/>
<path d="M995.084 382.064L1007.09 394.543L1004.31 411.633L992.301 399.154L995.084 382.064ZM992.243 372.955L987.747 400.574L1007.14 420.742L1011.64 393.126L992.243 372.955Z" fill="#FFA2A2" fill-opacity="0.4"/>
<path d="M960.156 501.447C959.86 501.447 959.563 501.384 959.28 501.251C958.243 500.767 957.796 499.532 958.279 498.496C959.407 496.082 961.383 494.331 963.844 493.566C966.305 492.804 968.922 493.127 971.213 494.472C972.488 495.22 973.923 495.402 975.254 494.99C976.587 494.575 977.665 493.609 978.291 492.268C979.42 489.855 981.398 488.104 983.859 487.342C986.316 486.577 988.935 486.899 991.226 488.248C992.213 488.828 992.542 490.098 991.962 491.085C991.382 492.074 990.11 492.399 989.125 491.821C987.851 491.071 986.417 490.885 985.088 491.299C983.756 491.714 982.674 492.682 982.047 494.025C980.92 496.434 978.945 498.183 976.486 498.947C974.029 499.714 971.41 499.394 969.114 498.047C967.836 497.299 966.405 497.115 965.076 497.524C963.743 497.938 962.665 498.907 962.036 500.25C961.685 501.004 960.936 501.447 960.156 501.447Z" fill="#FFA2A2" fill-opacity="0.4"/>
<path d="M1367.07 590.318C1367.05 590.318 1367.03 590.318 1367.02 590.316C1366.27 590.288 1365.69 589.661 1365.72 588.914C1365.75 587.954 1365.42 587.072 1364.77 586.437C1364.12 585.798 1363.24 585.475 1362.26 585.533C1360.53 585.618 1358.91 585.038 1357.71 583.861C1356.51 582.684 1355.89 581.08 1355.95 579.347C1355.98 578.382 1355.65 577.503 1355 576.866C1354.35 576.227 1353.46 575.913 1352.49 575.962C1351.75 575.954 1351.11 575.432 1351.07 574.688C1351.02 573.941 1351.59 573.302 1352.34 573.26C1354.08 573.179 1355.69 573.755 1356.89 574.934C1358.09 576.111 1358.72 577.713 1358.65 579.446C1358.62 580.409 1358.95 581.29 1359.61 581.929C1360.26 582.564 1361.14 582.878 1362.11 582.831C1363.86 582.755 1365.46 583.327 1366.66 584.508C1367.86 585.685 1368.49 587.287 1368.42 589.018C1368.39 589.746 1367.79 590.318 1367.07 590.318Z" fill="#FFA2A2" fill-opacity="0.4"/>
<path d="M948.386 571.642C948.305 571.642 948.224 571.64 948.145 571.638C947.296 571.61 946.63 570.9 946.659 570.053C946.685 569.203 947.389 568.556 948.244 568.566C949.358 568.617 950.339 568.214 951.057 567.472C951.777 566.73 952.137 565.719 952.068 564.623C951.947 562.649 952.612 560.809 953.943 559.44C955.272 558.069 957.1 557.367 959.057 557.409C960.161 557.438 961.152 557.058 961.872 556.315C962.592 555.573 962.952 554.56 962.883 553.462C962.831 552.615 963.474 551.887 964.321 551.832C965.173 551.771 965.897 552.425 965.951 553.272C966.075 555.244 965.409 557.086 964.077 558.455C962.748 559.824 960.916 560.538 958.96 560.481C957.87 560.427 956.867 560.835 956.149 561.577C955.429 562.322 955.069 563.335 955.136 564.431C955.261 566.4 954.596 568.241 953.265 569.614C951.987 570.924 950.262 571.642 948.386 571.642Z" fill="#FFA2A2" fill-opacity="0.4"/>
<path d="M1135 586.059C1133.79 586.059 1132.61 585.758 1131.55 585.163C1129.76 584.172 1128.51 582.498 1128.03 580.445C1127.76 579.307 1127.08 578.38 1126.11 577.845C1125.14 577.309 1124 577.218 1122.88 577.596C1120.88 578.273 1118.79 578.099 1117.01 577.104C1115.22 576.113 1113.97 574.437 1113.49 572.384C1113.28 571.499 1113.83 570.615 1114.71 570.407C1115.6 570.204 1116.48 570.748 1116.69 571.628C1116.96 572.769 1117.64 573.693 1118.6 574.229C1119.57 574.765 1120.72 574.858 1121.83 574.477C1123.83 573.802 1125.92 573.978 1127.7 574.967C1129.49 575.958 1130.74 577.634 1131.23 579.687C1131.5 580.827 1132.18 581.752 1133.14 582.288C1134.11 582.825 1135.26 582.916 1136.37 582.536C1137.23 582.251 1138.16 582.712 1138.45 583.57C1138.74 584.429 1138.28 585.363 1137.42 585.653C1136.62 585.924 1135.8 586.059 1135 586.059Z" fill="#FFA2A2" fill-opacity="0.4"/>
<path d="M1246.63 429.062C1245.63 429.062 1244.61 428.88 1243.62 428.514C1242.63 428.15 1242.13 427.056 1242.49 426.071C1242.86 425.084 1243.95 424.578 1244.94 424.942C1246.21 425.409 1247.53 425.343 1248.67 424.754C1249.8 424.162 1250.62 423.11 1250.97 421.794C1251.6 419.434 1253.09 417.533 1255.19 416.441C1257.29 415.347 1259.71 415.209 1262 416.05C1263.28 416.52 1264.6 416.455 1265.74 415.866C1266.87 415.274 1267.69 414.222 1268.04 412.908C1268.31 411.893 1269.35 411.286 1270.37 411.553C1271.38 411.822 1271.99 412.863 1271.72 413.878C1271.09 416.245 1269.59 418.15 1267.49 419.242C1265.39 420.328 1262.98 420.467 1260.69 419.622C1259.41 419.157 1258.08 419.225 1256.95 419.816C1255.81 420.408 1255 421.458 1254.65 422.77C1254.02 425.136 1252.52 427.039 1250.42 428.131C1249.23 428.752 1247.94 429.062 1246.63 429.062Z" fill="#FFA2A2" fill-opacity="0.4"/>
<path d="M1067.39 519.552C1066.75 519.552 1066.16 519.11 1066.01 518.456C1065.84 517.696 1066.31 516.938 1067.07 516.762L1079.25 513.945C1080 513.759 1080.77 514.24 1080.95 515.002C1081.12 515.763 1080.65 516.521 1079.89 516.697L1067.71 519.514C1067.6 519.54 1067.49 519.552 1067.39 519.552Z" fill="#FFA2A2" fill-opacity="0.4"/>
<path d="M1324 373.06C1323.39 373.06 1322.84 372.647 1322.69 372.033C1322.52 371.313 1322.96 370.587 1323.68 370.415L1335.22 367.642C1335.94 367.464 1336.66 367.913 1336.84 368.631C1337.01 369.351 1336.57 370.077 1335.85 370.249L1324.31 373.021C1324.21 373.05 1324.1 373.06 1324 373.06Z" fill="#FFA2A2" fill-opacity="0.4"/>
<path d="M1394.42 477.479L1378.26 474.427L1381.31 458.267L1384.5 458.868L1382.04 471.845L1395.02 474.296L1394.42 477.479Z" fill="#FFA2A2" fill-opacity="0.4"/>
<path d="M1182.16 391.348L1166.37 378.116L1168.98 375.008L1181.66 385.633L1192.28 372.955L1195.39 375.562L1182.16 391.348Z" fill="#FFA2A2" fill-opacity="0.4"/>
<path d="M1273.23 560.588L1271.22 549.009L1259.64 551.029L1259.14 548.19L1273.56 545.676L1276.07 560.095L1273.23 560.588Z" fill="#FFA2A2" fill-opacity="0.4"/>
<path d="M785.831 22.0819L785.475 19.3477C787.542 19.0768 789.382 18.0191 790.654 16.3628C791.926 14.7086 792.476 12.656 792.207 10.5892C791.937 8.52045 790.877 6.67815 789.223 5.40816C787.57 4.13614 785.522 3.58407 783.449 3.85505L783.091 1.12094C785.89 0.748836 788.662 1.49909 790.901 3.22005C793.14 4.94101 794.574 7.42842 794.94 10.2293C795.306 13.0281 794.559 15.8027 792.84 18.0393C791.12 20.282 788.63 21.7158 785.831 22.0819Z" fill="#FFA2A2" fill-opacity="0.4"/>
<path d="M524.855 312.872C523.471 312.872 522.082 312.679 520.715 312.291C516.842 311.191 513.631 308.651 511.671 305.136L515.103 303.221C516.551 305.82 518.925 307.699 521.789 308.512C524.648 309.322 527.659 308.975 530.256 307.525C535.619 304.534 537.55 297.737 534.562 292.376L537.993 290.461C542.038 297.719 539.427 306.914 532.171 310.958C529.896 312.224 527.388 312.872 524.855 312.872Z" fill="#FFA2A2" fill-opacity="0.4"/>
<path d="M874.305 221.102C868.039 215.414 867.57 205.685 873.259 199.42C878.95 193.155 888.677 192.689 894.942 198.372L892.25 201.339C887.619 197.136 880.43 197.478 876.224 202.111C872.019 206.742 872.365 213.933 876.996 218.14L874.305 221.102Z" fill="#FFA2A2" fill-opacity="0.4"/>
<path d="M942.787 169.543L941.11 167.243C942.847 165.975 943.988 164.107 944.319 161.981C944.651 159.854 944.135 157.726 942.867 155.985C940.247 152.402 935.195 151.609 931.607 154.23L929.931 151.931C934.784 148.388 941.62 149.455 945.165 154.309C946.882 156.661 947.579 159.542 947.13 162.42C946.681 165.296 945.138 167.826 942.787 169.543Z" fill="#FFA2A2" fill-opacity="0.4"/>
<path d="M709.252 225.998L706.935 222.397C712.565 218.775 714.201 211.246 710.579 205.616C706.955 199.984 699.43 198.346 693.8 201.972L691.484 198.366C699.1 193.472 709.284 195.682 714.184 203.296C719.08 210.916 716.87 221.098 709.252 225.998Z" fill="#FFA2A2" fill-opacity="0.4"/>
<path d="M643.587 440.655L641.27 437.053C646.9 433.431 648.536 425.902 644.914 420.272C641.29 414.64 633.765 413.002 628.135 416.628L625.82 413.022C633.435 408.128 643.62 410.339 648.52 417.953C653.416 425.573 651.205 435.755 643.587 440.655Z" fill="#FFA2A2" fill-opacity="0.4"/>
<path d="M625.02 219.756C617.723 213.731 616.684 202.896 622.704 195.602C625.62 192.067 629.74 189.879 634.302 189.44C638.87 189.007 643.325 190.37 646.86 193.284L644.011 196.736C641.398 194.58 638.106 193.567 634.731 193.895C631.357 194.218 628.314 195.836 626.158 198.449C621.707 203.842 622.476 211.853 627.871 216.304L625.02 219.756Z" fill="#FFA2A2" fill-opacity="0.4"/>
<path d="M493.202 73.6176C493.384 73.6176 493.568 73.6277 493.754 73.6459C495.136 73.7915 496.375 74.467 497.251 75.5469C498.125 76.6248 498.525 77.9797 498.379 79.3589C498.1 82.0141 495.882 84.0121 493.22 84.0121C493.038 84.0121 492.852 84.002 492.668 83.9838C489.819 83.6845 487.746 81.1203 488.045 78.2729C488.323 75.6156 490.541 73.6176 493.202 73.6176ZM493.202 71.3001C489.408 71.3001 486.145 74.1697 485.74 78.0262C485.305 82.1537 488.3 85.8504 492.426 86.2852C492.693 86.3155 492.96 86.3276 493.22 86.3276C497.018 86.3276 500.278 83.458 500.685 79.6016C501.119 75.4741 498.127 71.7774 493.999 71.3426C493.73 71.3122 493.465 71.3001 493.202 71.3001Z" fill="#FFA2A2" fill-opacity="0.4"/>
<path d="M904.109 34.2298C906.511 34.2298 908.657 35.8435 909.326 38.151C910.161 41.0307 908.499 44.054 905.619 44.8872C905.122 45.0328 904.612 45.1056 904.1 45.1056C901.7 45.1056 899.554 43.4918 898.883 41.1844C898.048 38.3047 899.71 35.2813 902.59 34.4482C903.085 34.3026 903.597 34.2298 904.109 34.2298ZM904.107 31.803C903.383 31.803 902.644 31.9041 901.912 32.1165C897.74 33.3278 895.344 37.6899 896.553 41.8578C897.552 45.2957 900.691 47.5303 904.1 47.5303C904.826 47.5303 905.565 47.4292 906.297 47.2168C910.467 46.0055 912.865 41.6434 911.656 37.4755C910.657 34.0397 907.516 31.803 904.107 31.803Z" fill="#FFA2A2" fill-opacity="0.4"/>
<path d="M787.403 132.69C787.744 132.69 788.09 132.719 788.43 132.777C791.678 133.339 793.864 136.44 793.302 139.689C792.804 142.563 790.331 144.65 787.419 144.65C787.077 144.65 786.731 144.618 786.392 144.561C783.142 143.999 780.956 140.897 781.518 137.651C782.017 134.775 784.491 132.69 787.403 132.69ZM787.403 130.023C783.273 130.023 779.621 132.992 778.893 137.196C778.08 141.902 781.233 146.375 785.939 147.19C786.438 147.275 786.934 147.317 787.421 147.317C791.548 147.317 795.203 144.351 795.931 140.144C796.744 135.441 793.589 130.965 788.885 130.152C788.388 130.063 787.892 130.023 787.403 130.023Z" fill="#FFA2A2" fill-opacity="0.4"/>
<path d="M488.053 145.447C489.641 145.447 491.141 145.967 492.395 146.948C493.875 148.108 494.816 149.777 495.044 151.647C495.271 153.518 494.755 155.362 493.594 156.843C492.249 158.559 490.225 159.544 488.039 159.544C486.451 159.544 484.951 159.023 483.697 158.042C480.637 155.643 480.099 151.204 482.496 148.145C483.843 146.43 485.869 145.447 488.053 145.447ZM488.053 142.3C485.028 142.3 482.033 143.643 480.023 146.207C476.55 150.638 477.327 157.045 481.758 160.517C483.622 161.981 485.839 162.689 488.039 162.689C491.064 162.689 494.057 161.348 496.069 158.782C499.542 154.353 498.765 147.945 494.334 144.472C492.468 143.012 490.253 142.3 488.053 142.3Z" fill="#FFA2A2" fill-opacity="0.4"/>
<path d="M421.908 384.402C423.461 384.402 424.887 385.109 425.825 386.341C426.62 387.387 426.96 388.677 426.782 389.979C426.606 391.279 425.933 392.432 424.887 393.227C424.026 393.882 422.998 394.23 421.918 394.23C420.367 394.23 418.939 393.522 418.001 392.288C417.206 391.243 416.867 389.953 417.043 388.65C417.219 387.35 417.892 386.197 418.937 385.405C419.803 384.747 420.828 384.402 421.908 384.402ZM421.908 382.209C420.41 382.209 418.897 382.681 417.613 383.659C414.488 386.034 413.882 390.493 416.258 393.617C417.655 395.455 419.775 396.424 421.92 396.424C423.419 396.424 424.932 395.951 426.216 394.972C429.338 392.598 429.947 388.139 427.571 385.014C426.173 383.174 424.054 382.209 421.908 382.209Z" fill="#FFA2A2" fill-opacity="0.4"/>
<path d="M659.649 -5.46969C663.374 -5.46969 666.735 -3.11577 668.013 0.386818C669.694 4.99761 667.31 10.118 662.699 11.7985C661.714 12.1585 660.689 12.3405 659.653 12.3405C655.926 12.3405 652.565 9.98659 651.287 6.484C650.472 4.24938 650.577 1.83073 651.58 -0.32502C652.585 -2.47672 654.367 -4.11275 656.602 -4.92773C657.587 -5.28769 658.612 -5.46969 659.649 -5.46969ZM659.647 -9.44144C658.183 -9.44144 656.695 -9.18867 655.241 -8.65884C648.561 -6.22603 645.119 1.16136 647.554 7.84297C649.457 13.0685 654.393 16.3123 659.649 16.3123C661.111 16.3123 662.602 16.0595 664.054 15.5297C670.731 13.0969 674.173 5.70744 671.741 -0.972148C669.838 -6.19974 664.903 -9.44144 659.647 -9.44144Z" fill="#FFA2A2" fill-opacity="0.4"/>
<path d="M662.44 366.828C663.219 366.828 663.971 367.006 664.679 367.354C665.894 367.952 666.804 368.99 667.241 370.272C667.676 371.556 667.587 372.929 666.99 374.145C666.129 375.894 664.381 376.98 662.432 376.98C661.653 376.98 660.901 376.804 660.197 376.456C657.688 375.218 656.65 372.169 657.886 369.661C658.743 367.914 660.491 366.828 662.44 366.828ZM662.44 364.565C659.734 364.565 657.13 366.07 655.853 368.66C654.064 372.296 655.558 376.695 659.194 378.486C660.238 379 661.34 379.243 662.43 379.243C665.136 379.243 667.74 377.738 669.018 375.146C670.808 371.512 669.312 367.111 665.68 365.321C664.634 364.808 663.528 364.565 662.44 364.565Z" fill="#FFA2A2" fill-opacity="0.4"/>
<path d="M411.522 249.823L419.944 258.737L417.865 270.824L409.445 261.908L411.522 249.823ZM409.568 243.356L406.211 262.887L419.819 277.294L423.178 257.76L409.568 243.356Z" fill="#FFA2A2" fill-opacity="0.4"/>
<path d="M763.309 389.504L746.048 395.334L731.028 385.027L748.289 379.194L763.309 389.504ZM773.253 390.883L748.977 374.222L721.085 383.647L745.358 400.303L773.253 390.883Z" fill="#FFA2A2" fill-opacity="0.4"/>
<path d="M666.588 258.762L667.868 269.544L660.012 277.039L658.73 266.256L666.588 258.762ZM668.615 253.131L655.917 265.243L657.988 282.667L670.683 270.557L668.615 253.131Z" fill="#FFA2A2" fill-opacity="0.4"/>
<path d="M554.481 146.363L563.09 151.132L564.441 160.879L555.832 156.112L554.481 146.363ZM551.413 141.892L553.595 157.645L567.508 165.352L565.326 149.601L551.413 141.892Z" fill="#FFA2A2" fill-opacity="0.4"/>
<path d="M597.22 365.874L591.083 378.469L577.346 381.107L583.483 368.512L597.22 365.874ZM603.341 361.181L581.144 365.444L571.228 385.8L593.423 381.537L603.341 361.181Z" fill="#FFA2A2" fill-opacity="0.4"/>
<path d="M686.847 89.3814L676.687 104.644L658.38 105.671L668.543 90.4088L686.847 89.3814ZM695.614 84.3662L666.034 86.0265L649.609 110.686L679.193 109.028L695.614 84.3662Z" fill="#FFA2A2" fill-opacity="0.4"/>
<path d="M418.333 1.42844C418.037 1.42844 417.74 1.36575 417.457 1.23228C416.42 0.748954 415.973 -0.486673 416.456 -1.52208C417.584 -3.93668 419.56 -5.68797 422.021 -6.45239C424.482 -7.21479 427.099 -6.89123 429.391 -5.54641C430.665 -4.79817 432.1 -4.61615 433.431 -5.0287C434.764 -5.44327 435.842 -6.40992 436.469 -7.75069C437.597 -10.1633 439.575 -11.9146 442.036 -12.677C444.493 -13.4414 447.112 -13.1198 449.403 -11.771C450.39 -11.1906 450.72 -9.92059 450.139 -8.93372C449.559 -7.94482 448.287 -7.61924 447.302 -8.19761C446.028 -8.94788 444.594 -9.13393 443.265 -8.71937C441.933 -8.3048 440.851 -7.33613 440.224 -5.99334C439.097 -3.5848 437.122 -1.83552 434.663 -1.0711C432.206 -0.304653 429.587 -0.624188 427.291 -1.97103C426.013 -2.71927 424.582 -2.90329 423.253 -2.49479C421.92 -2.08022 420.842 -1.11155 420.213 0.231245C419.862 0.985555 419.113 1.42844 418.333 1.42844Z" fill="#FFA2A2" fill-opacity="0.4"/>
<path d="M825.246 90.2995C825.228 90.2995 825.211 90.2995 825.193 90.2975C824.447 90.2692 823.865 89.6423 823.893 88.8961C823.931 87.9355 823.594 87.0538 822.944 86.4188C822.295 85.7797 821.414 85.4562 820.437 85.5148C818.706 85.5997 817.09 85.0194 815.889 83.8424C814.689 82.6654 814.063 81.0618 814.125 79.3287C814.162 78.364 813.826 77.4843 813.177 76.8473C812.526 76.2083 811.634 75.8948 810.669 75.9434C809.927 75.9353 809.286 75.4135 809.243 74.6693C809.201 73.9231 809.771 73.2841 810.517 73.2416C812.257 73.1607 813.87 73.7371 815.072 74.916C816.269 76.093 816.894 77.6947 816.829 79.4278C816.793 80.3904 817.132 81.2721 817.784 81.9111C818.433 82.5461 819.316 82.8596 820.285 82.813C822.04 82.7362 823.64 83.3085 824.841 84.4895C826.038 85.6665 826.663 87.2681 826.597 88.9992C826.568 89.7272 825.968 90.2995 825.246 90.2995Z" fill="#FFA2A2" fill-opacity="0.4"/>
<path d="M796.055 349.341C795.385 349.341 794.837 348.801 794.829 348.13C794.821 347.452 795.363 346.896 796.04 346.888C796.914 346.878 797.695 346.532 798.241 345.917C798.789 345.299 799.039 344.478 798.944 343.606C798.777 342.041 799.24 340.55 800.251 339.41C801.26 338.269 802.684 337.628 804.259 337.606C805.135 337.596 805.915 337.25 806.463 336.631C807.009 336.014 807.26 335.195 807.167 334.324C807.094 333.65 807.58 333.046 808.253 332.973C808.926 332.884 809.531 333.385 809.604 334.059C809.774 335.624 809.311 337.116 808.297 338.257C807.288 339.398 805.865 340.037 804.291 340.057C803.418 340.069 802.635 340.417 802.087 341.034C801.541 341.652 801.29 342.469 801.383 343.341C801.551 344.906 801.088 346.401 800.075 347.539C799.066 348.68 797.642 349.319 796.071 349.339C796.065 349.341 796.059 349.341 796.055 349.341Z" fill="#FFA2A2" fill-opacity="0.4"/>
<path d="M480.022 244.624C479.598 244.624 479.169 244.484 478.811 244.195C476.882 242.638 475.741 240.458 475.602 238.063C475.462 235.671 476.338 233.38 478.067 231.61C479.025 230.627 479.513 229.37 479.436 228.073C479.359 226.775 478.726 225.586 477.656 224.72C475.727 223.161 474.586 220.983 474.447 218.587C474.307 216.194 475.183 213.903 476.914 212.134C477.662 211.369 478.884 211.359 479.642 212.103C480.404 212.848 480.417 214.069 479.672 214.831C478.71 215.814 478.224 217.068 478.299 218.362C478.376 219.661 479.009 220.852 480.083 221.719C482.01 223.274 483.149 225.452 483.288 227.845C483.43 230.239 482.558 232.532 480.829 234.306C479.867 235.291 479.379 236.543 479.454 237.839C479.531 239.135 480.164 240.326 481.238 241.194C482.067 241.863 482.196 243.079 481.527 243.908C481.143 244.379 480.584 244.624 480.022 244.624Z" fill="#FFA2A2" fill-opacity="0.4"/>
<path d="M500.931 381.261C498.632 381.261 496.454 380.502 494.674 379.056C492.484 377.279 491.188 374.698 491.024 371.788C490.931 370.175 490.225 368.755 489.04 367.792C487.853 366.828 486.318 366.429 484.716 366.676C481.828 367.107 479.03 366.377 476.837 364.593C474.647 362.816 473.353 360.235 473.191 357.327C473.123 356.075 474.079 355.004 475.333 354.933C476.595 354.874 477.656 355.823 477.727 357.074C477.816 358.69 478.518 360.108 479.703 361.07C480.892 362.035 482.433 362.433 484.037 362.187C486.919 361.756 489.711 362.488 491.901 364.266C494.094 366.043 495.392 368.622 495.56 371.532C495.651 373.151 496.352 374.569 497.538 375.532C498.725 376.496 500.259 376.897 501.867 376.648C503.105 376.454 504.264 377.313 504.452 378.551C504.64 379.791 503.788 380.947 502.549 381.137C502.005 381.22 501.465 381.261 500.931 381.261Z" fill="#FFA2A2" fill-opacity="0.4"/>
<path d="M832.32 452.806C830.02 452.806 827.842 452.048 826.063 450.602C823.873 448.824 822.576 446.244 822.413 443.334C822.32 441.72 821.614 440.3 820.429 439.338C819.242 438.373 817.707 437.975 816.105 438.222C813.217 438.652 810.418 437.922 808.226 436.139C806.036 434.361 804.742 431.781 804.58 428.873C804.511 427.621 805.468 426.549 806.722 426.478C807.984 426.42 809.045 427.368 809.116 428.62C809.205 430.236 809.907 431.653 811.092 432.616C812.281 433.58 813.822 433.979 815.426 433.732C818.307 433.301 821.1 434.033 823.29 435.811C825.482 437.589 826.781 440.167 826.949 443.077C827.04 444.697 827.741 446.115 828.926 447.077C830.113 448.042 831.648 448.442 833.256 448.193C834.494 447.999 835.652 448.859 835.841 450.096C836.029 451.336 835.177 452.493 833.938 452.683C833.394 452.766 832.854 452.806 832.32 452.806Z" fill="#FFA2A2" fill-opacity="0.4"/>
<path d="M406.563 71.6237C406.482 71.6237 406.401 71.6216 406.323 71.6196C405.473 71.5913 404.808 70.8815 404.836 70.0341C404.862 69.1848 405.566 68.5377 406.422 68.5478C407.536 68.5983 408.517 68.1959 409.235 67.4537C409.955 66.7115 410.314 65.7004 410.246 64.6043C410.124 62.6306 410.79 60.7903 412.12 59.4212C413.449 58.0501 415.277 57.3484 417.235 57.3909C418.339 57.4192 419.33 57.039 420.05 56.2968C420.77 55.5546 421.13 54.5415 421.061 53.4434C421.008 52.596 421.651 51.868 422.499 51.8134C423.35 51.7527 424.074 52.4059 424.129 53.2533C424.252 55.225 423.587 57.0673 422.254 58.4364C420.925 59.8055 419.093 60.5193 417.138 60.4627C416.048 60.4081 415.045 60.8166 414.327 61.5588C413.607 62.303 413.247 63.3161 413.314 64.4122C413.439 66.3819 412.774 68.2222 411.443 69.5953C410.165 70.9058 408.44 71.6237 406.563 71.6237Z" fill="#FFA2A2" fill-opacity="0.4"/>
<path d="M593.177 86.0406C591.972 86.0406 590.793 85.7393 589.723 85.1448C587.94 84.1538 586.69 82.4794 586.207 80.4268C585.936 79.2882 585.254 78.362 584.285 77.8261C583.319 77.2902 582.174 77.1992 581.062 77.5774C579.058 78.2549 576.973 78.0809 575.185 77.086C573.4 76.0951 572.15 74.4186 571.668 72.366C571.46 71.4802 572.008 70.5965 572.892 70.3882C573.782 70.186 574.661 70.73 574.868 71.6096C575.137 72.7502 575.816 73.6744 576.783 74.2103C577.749 74.7462 578.894 74.8392 580.01 74.459C582.006 73.7836 584.093 73.9595 585.881 74.9484C587.669 75.9393 588.921 77.6158 589.406 79.6684C589.675 80.809 590.354 81.7332 591.319 82.2691C592.288 82.807 593.434 82.898 594.549 82.5178C595.41 82.2327 596.342 82.6938 596.631 83.5512C596.923 84.4107 596.46 85.345 595.6 85.6342C594.795 85.9051 593.982 86.0406 593.177 86.0406Z" fill="#FFA2A2" fill-opacity="0.4"/>
<path d="M421.139 159.077C420.626 159.077 420.112 158.879 419.724 158.483C417.942 156.663 417.038 154.307 417.18 151.846C417.321 149.389 418.488 147.156 420.464 145.556C421.56 144.668 422.205 143.443 422.282 142.112C422.359 140.782 421.855 139.491 420.866 138.482C419.083 136.662 418.179 134.304 418.322 131.843C418.466 129.384 419.631 127.152 421.609 125.554C422.46 124.866 423.706 125 424.395 125.849C425.083 126.701 424.951 127.946 424.1 128.636C423.002 129.524 422.357 130.745 422.28 132.074C422.203 133.406 422.707 134.699 423.7 135.712C425.477 137.526 426.381 139.88 426.24 142.339C426.1 144.798 424.933 147.035 422.959 148.636C421.861 149.526 421.214 150.747 421.137 152.076C421.061 153.407 421.564 154.699 422.557 155.712C423.321 156.495 423.309 157.749 422.527 158.515C422.14 158.889 421.641 159.077 421.139 159.077Z" fill="#FFA2A2" fill-opacity="0.4"/>
<path d="M814.629 184.702C814.356 184.702 814.083 184.605 813.869 184.406L806.528 177.674C806.069 177.254 806.039 176.542 806.459 176.085C806.88 175.624 807.592 175.593 808.051 176.016L815.392 182.748C815.851 183.169 815.881 183.881 815.46 184.338C815.238 184.578 814.935 184.702 814.629 184.702Z" fill="#FFA2A2" fill-opacity="0.4"/>
<path d="M574.429 238.391C574.101 238.391 573.773 238.255 573.539 237.991L566.586 230.122C566.153 229.63 566.2 228.88 566.689 228.447C567.181 228.015 567.929 228.061 568.366 228.551L575.318 236.419C575.751 236.911 575.705 237.661 575.215 238.094C574.989 238.294 574.708 238.391 574.429 238.391Z" fill="#FFA2A2" fill-opacity="0.4"/>
<path d="M681.46 157.426C681.132 157.426 680.804 157.291 680.57 157.026L673.617 149.157C673.185 148.666 673.231 147.916 673.72 147.483C674.212 147.05 674.96 147.096 675.397 147.586L682.35 155.455C682.782 155.946 682.736 156.696 682.246 157.129C682.02 157.329 681.739 157.426 681.46 157.426Z" fill="#FFA2A2" fill-opacity="0.4"/>
<path d="M525.566 19.534C524.923 19.534 524.341 19.0911 524.189 18.4379C524.013 17.6775 524.487 16.9192 525.249 16.7432L537.431 13.9262C538.181 13.7402 538.95 14.2215 539.126 14.9839C539.302 15.7442 538.829 16.5026 538.066 16.6785L525.884 19.4956C525.777 19.5219 525.672 19.534 525.566 19.534Z" fill="#FFA2A2" fill-opacity="0.4"/>
<path d="M931.842 362.003C931.286 362.003 930.782 361.623 930.647 361.059L928.121 350.474C927.963 349.813 928.372 349.149 929.033 348.992C929.686 348.836 930.357 349.24 930.515 349.902L933.041 360.486C933.199 361.148 932.79 361.811 932.129 361.969C932.034 361.993 931.937 362.003 931.842 362.003Z" fill="#FFA2A2" fill-opacity="0.4"/>
<path d="M868.917 419.216C868.46 419.216 868.026 418.953 867.827 418.509L863.552 408.883C863.285 408.28 863.556 407.578 864.157 407.311C864.758 407.044 865.461 407.315 865.728 407.916L870.003 417.542C870.27 418.145 869.999 418.846 869.399 419.113C869.243 419.184 869.079 419.216 868.917 419.216Z" fill="#FFA2A2" fill-opacity="0.4"/>
<path d="M728.367 298.798C727.319 298.798 726.444 297.983 726.381 296.924C726.316 295.826 727.153 294.883 728.251 294.819L745.833 293.787C746.941 293.739 747.874 294.562 747.936 295.66C748.001 296.758 747.164 297.7 746.066 297.765L728.484 298.796C728.446 298.798 728.405 298.798 728.367 298.798Z" fill="#FFA2A2" fill-opacity="0.4"/>
<path d="M613.216 322.779C612.759 322.779 612.338 322.479 612.201 322.02L609.558 313.049C609.392 312.491 609.713 311.903 610.274 311.739C610.828 311.569 611.42 311.895 611.586 312.455L614.229 321.426C614.395 321.984 614.073 322.572 613.513 322.736C613.414 322.764 613.315 322.779 613.216 322.779Z" fill="#FFA2A2" fill-opacity="0.4"/>
<path d="M942.243 259.332C942.174 259.332 942.103 259.328 942.034 259.318L926.71 257.481C925.753 257.366 925.07 256.499 925.185 255.542C925.3 254.583 926.18 253.894 927.126 254.017L942.451 255.853C943.408 255.969 944.091 256.836 943.976 257.793C943.869 258.681 943.114 259.332 942.243 259.332Z" fill="#FFA2A2" fill-opacity="0.4"/>
<path d="M866.49 139.839L863.281 136.648L879.491 120.34L895.797 136.555L892.604 139.766L879.509 126.747L866.49 139.839Z" fill="#FFA2A2" fill-opacity="0.4"/>
<path d="M796.307 267.247L793.395 265.585L800.184 253.718L788.319 246.931L789.983 244.021L804.76 252.472L796.307 267.247Z" fill="#FFA2A2" fill-opacity="0.4"/>
<path d="M701.865 443.728L693.062 431.42L695.484 429.687L702.554 439.57L712.435 432.496L714.17 434.923L701.865 443.728Z" fill="#FFA2A2" fill-opacity="0.4"/>
<path d="M731.412 60.5699L729.396 48.9904L717.816 51.0106L717.321 48.1713L731.74 45.6576L734.251 60.0765L731.412 60.5699Z" fill="#FFA2A2" fill-opacity="0.4"/>
<path d="M554.05 451.996L547.892 440.449L536.345 446.607L534.835 443.776L549.215 436.109L556.881 450.488L554.05 451.996Z" fill="#FFA2A2" fill-opacity="0.4"/>
<path d="M869.473 290.6L853.657 274.919L856.745 271.803L869.445 284.396L882.035 271.692L885.152 274.782L869.473 290.6Z" fill="#FFA2A2" fill-opacity="0.4"/>
<path d="M795.566 496.367C797.554 496.367 799.451 495.651 800.952 494.319C802.575 492.877 803.54 490.891 803.67 488.721C803.799 486.555 803.077 484.466 801.635 482.842C800.193 481.218 798.205 480.254 796.037 480.122L795.91 482.24C797.512 482.335 798.982 483.049 800.046 484.25C801.111 485.451 801.645 486.994 801.55 488.596C801.455 490.199 800.741 491.668 799.54 492.733C798.341 493.797 796.798 494.331 795.194 494.236L795.067 496.353C795.237 496.363 795.402 496.367 795.566 496.367Z" fill="#FFA2A2" fill-opacity="0.4"/>
<path d="M937.412 527.559C940.197 527.559 942.923 526.174 944.513 523.646L942.664 522.485C941.785 523.882 940.412 524.855 938.8 525.221C937.192 525.589 935.53 525.304 934.13 524.424C931.243 522.608 930.371 518.778 932.189 515.888L930.341 514.727C927.881 518.637 929.06 523.814 932.968 526.273C934.349 527.144 935.89 527.559 937.412 527.559Z" fill="#FFA2A2" fill-opacity="0.4"/>
<path d="M419.228 574.628C421.04 572.359 421.863 569.521 421.542 566.635C421.22 563.748 419.795 561.159 417.526 559.347C412.844 555.606 405.989 556.366 402.243 561.05L404.46 562.819C407.226 559.359 412.292 558.795 415.754 561.564C417.431 562.904 418.484 564.815 418.723 566.951C418.961 569.084 418.353 571.182 417.012 572.856L419.228 574.628Z" fill="#FFA2A2" fill-opacity="0.4"/>
<path d="M478.99 492.533C476.535 492.533 474.321 493.892 473.215 496.08C472.434 497.621 472.301 499.374 472.839 501.012C473.376 502.657 474.521 503.987 476.062 504.768C476.98 505.231 477.959 505.467 478.976 505.467C481.431 505.467 483.644 504.109 484.752 501.92C486.362 498.741 485.083 494.842 481.902 493.231C480.986 492.768 480.006 492.533 478.99 492.533ZM478.99 489.649C480.41 489.649 481.852 489.973 483.205 490.658C487.814 492.992 489.656 498.62 487.324 503.225C485.678 506.477 482.39 508.351 478.976 508.351C477.557 508.351 476.115 508.028 474.76 507.34C470.153 505.01 468.309 499.382 470.642 494.776C472.286 491.524 475.577 489.649 478.99 489.649Z" fill="#FFA2A2" fill-opacity="0.4"/>
<path d="M709.862 486.865C708.699 486.865 707.569 487.113 706.497 487.599C704.517 488.499 703.009 490.114 702.244 492.153C701.482 494.189 701.557 496.402 702.457 498.377C703.775 501.277 706.687 503.152 709.874 503.152C711.035 503.152 712.168 502.905 713.237 502.418C717.324 500.561 719.138 495.722 717.28 491.639C715.959 488.739 713.049 486.865 709.862 486.865ZM709.862 483.235C714.335 483.235 718.613 485.799 720.586 490.135C723.278 496.054 720.663 503.033 714.742 505.724C713.16 506.442 711.506 506.782 709.876 506.782C705.403 506.782 701.124 504.218 699.152 499.882C696.463 493.965 699.077 486.982 704.995 484.292C706.574 483.574 708.232 483.235 709.862 483.235Z" fill="#FFA2A2" fill-opacity="0.4"/>
<path d="M747.193 558.166L738.969 567.258L751.179 568.383L759.404 559.289L747.193 558.166ZM745.966 555.02L765.697 556.832L752.407 571.527L732.677 569.713L745.966 555.02Z" fill="#FFA2A2" fill-opacity="0.4"/>
<path d="M846.479 551.931L837.563 555.074L834.725 564.091L843.642 560.949L846.479 551.931ZM850.099 548.186L845.514 562.761L831.106 567.837L835.69 553.266L850.099 548.186Z" fill="#FFA2A2" fill-opacity="0.4"/>
<path d="M887.739 482.543L875.737 495.023L878.518 512.113L890.522 499.633L887.739 482.543ZM890.581 473.435L895.076 501.053L875.679 521.221L871.185 493.605L890.581 473.435Z" fill="#FFA2A2" fill-opacity="0.4"/>
<path d="M630.93 561.462C631.933 561.462 632.949 561.28 633.942 560.914C634.926 560.55 635.432 559.456 635.068 558.472C634.704 557.485 633.61 556.979 632.625 557.343C631.355 557.81 630.029 557.743 628.894 557.155C627.755 556.562 626.936 555.511 626.589 554.194C625.964 551.834 624.465 549.933 622.368 548.841C620.267 547.747 617.852 547.61 615.559 548.451C614.285 548.92 612.958 548.856 611.824 548.267C610.687 547.675 609.87 546.623 609.521 545.308C609.252 544.293 608.206 543.687 607.195 543.954C606.178 544.223 605.573 545.264 605.842 546.279C606.467 548.645 607.967 550.55 610.069 551.642C612.168 552.728 614.582 552.868 616.874 552.022C618.148 551.557 619.476 551.626 620.611 552.217C621.747 552.809 622.564 553.859 622.912 555.171C623.539 557.537 625.04 559.44 627.141 560.532C628.326 561.153 629.618 561.462 630.93 561.462Z" fill="#FFA2A2" fill-opacity="0.4"/>
<path d="M562.482 512.639C563.089 512.639 563.637 512.226 563.787 511.611C563.961 510.891 563.516 510.165 562.796 509.994L551.259 507.221C550.541 507.043 549.815 507.492 549.641 508.21C549.469 508.93 549.912 509.656 550.632 509.828L562.169 512.6C562.272 512.629 562.379 512.639 562.482 512.639Z" fill="#FFA2A2" fill-opacity="0.4"/>
<path d="M488.404 577.958L504.564 574.907L501.512 558.747L498.327 559.347L500.78 572.324L487.803 574.775L488.404 577.958Z" fill="#FFA2A2" fill-opacity="0.4"/>
<path d="M622.779 493.475L638.564 480.244L635.958 477.135L623.282 487.76L612.657 475.083L609.549 477.689L622.779 493.475Z" fill="#FFA2A2" fill-opacity="0.4"/>
<path d="M406.174 500.327L418.805 490.313L416.831 487.825L406.69 495.868L398.649 485.722L396.162 487.692L406.174 500.327Z" fill="#FFA2A2" fill-opacity="0.4"/>
<path d="M1080.59 223.557C1079.21 223.557 1077.82 223.365 1076.45 222.976C1072.58 221.876 1069.37 219.336 1067.41 215.821L1070.84 213.906C1072.29 216.505 1074.66 218.384 1077.53 219.197C1080.39 220.008 1083.4 219.66 1085.99 218.21C1091.36 215.219 1093.29 208.422 1090.3 203.061L1093.73 201.146C1097.77 208.404 1095.16 217.599 1087.91 221.644C1085.63 222.909 1083.13 223.557 1080.59 223.557Z" fill="#FFA2A2" fill-opacity="0.4"/>
<path d="M1430.04 131.787C1423.78 126.099 1423.31 116.37 1429 110.105C1434.69 103.84 1444.41 103.374 1450.68 109.057L1447.99 112.024C1443.36 107.821 1436.17 108.163 1431.96 112.796C1427.76 117.427 1428.1 124.618 1432.73 128.825L1430.04 131.787Z" fill="#FFA2A2" fill-opacity="0.4"/>
<path d="M1264.99 136.684L1262.67 133.082C1268.3 129.46 1269.94 121.931 1266.32 116.301C1262.69 110.669 1255.17 109.031 1249.54 112.657L1247.22 109.051C1254.84 104.157 1265.02 106.368 1269.92 113.982C1274.82 121.601 1272.61 131.784 1264.99 136.684Z" fill="#FFA2A2" fill-opacity="0.4"/>
<path d="M1180.76 130.441C1173.46 124.416 1172.42 113.581 1178.44 106.287C1181.36 102.752 1185.48 100.564 1190.04 100.125C1194.61 99.6921 1199.06 101.055 1202.6 103.969L1199.75 107.421C1197.14 105.266 1193.84 104.252 1190.47 104.58C1187.09 104.904 1184.05 106.521 1181.9 109.134C1177.44 114.528 1178.21 122.538 1183.61 126.989L1180.76 130.441Z" fill="#FFA2A2" fill-opacity="0.4"/>
<path d="M1343.14 43.3754C1343.48 43.3754 1343.83 43.4037 1344.17 43.4623C1347.42 44.0245 1349.6 47.1247 1349.04 50.3745C1348.54 53.2481 1346.07 55.3351 1343.16 55.3351C1342.81 55.3351 1342.47 55.3028 1342.13 55.2461C1338.88 54.684 1336.69 51.5818 1337.26 48.336C1337.75 45.4604 1340.23 43.3754 1343.14 43.3754ZM1343.14 40.708C1339.01 40.708 1335.36 43.6767 1334.63 47.881C1333.82 52.5869 1336.97 57.0601 1341.68 57.8751C1342.18 57.9601 1342.67 58.0025 1343.16 58.0025C1347.29 58.0025 1350.94 55.0359 1351.67 50.8295C1352.48 46.1257 1349.33 41.6504 1344.62 40.8374C1344.12 40.7484 1343.63 40.708 1343.14 40.708Z" fill="#FFA2A2" fill-opacity="0.4"/>
<path d="M1043.79 56.1321C1045.38 56.1321 1046.88 56.6518 1048.13 57.6326C1049.61 58.7934 1050.55 60.4618 1050.78 62.3324C1051.01 64.203 1050.49 66.0473 1049.33 67.5276C1047.99 69.2445 1045.96 70.2294 1043.78 70.2294C1042.19 70.2294 1040.69 69.7076 1039.43 68.7268C1036.37 66.3284 1035.84 61.8895 1038.23 58.8298C1039.58 57.1149 1041.61 56.1321 1043.79 56.1321ZM1043.79 52.9854C1040.76 52.9854 1037.77 54.3282 1035.76 56.8925C1032.29 61.3233 1033.06 67.7299 1037.49 71.2021C1039.36 72.6662 1041.58 73.374 1043.78 73.374C1046.8 73.374 1049.79 72.0333 1051.81 69.467C1055.28 65.0382 1054.5 58.6296 1050.07 55.1574C1048.2 53.6973 1045.99 52.9854 1043.79 52.9854Z" fill="#FFA2A2" fill-opacity="0.4"/>
<path d="M977.646 295.087C979.199 295.087 980.625 295.794 981.563 297.026C982.358 298.072 982.697 299.362 982.519 300.664C982.343 301.964 981.67 303.117 980.625 303.912C979.763 304.567 978.736 304.915 977.656 304.915C976.105 304.915 974.677 304.207 973.739 302.974C972.944 301.928 972.604 300.638 972.78 299.335C972.956 298.035 973.629 296.882 974.675 296.09C975.54 295.432 976.566 295.087 977.646 295.087ZM977.646 292.895C976.147 292.895 974.635 293.366 973.35 294.344C970.226 296.719 969.619 301.178 971.995 304.302C973.393 306.14 975.512 307.109 977.658 307.109C979.156 307.109 980.669 306.636 981.953 305.657C985.076 303.283 985.684 298.824 983.308 295.699C981.911 293.859 979.791 292.895 977.646 292.895Z" fill="#FFA2A2" fill-opacity="0.4"/>
<path d="M1218.18 277.513C1218.96 277.513 1219.71 277.691 1220.42 278.039C1221.63 278.637 1222.54 279.675 1222.98 280.957C1223.41 282.241 1223.32 283.614 1222.73 284.83C1221.87 286.579 1220.12 287.665 1218.17 287.665C1217.39 287.665 1216.64 287.489 1215.93 287.141C1213.43 285.903 1212.39 282.854 1213.62 280.346C1214.48 278.599 1216.23 277.513 1218.18 277.513ZM1218.18 275.25C1215.47 275.25 1212.87 276.755 1211.59 279.345C1209.8 282.981 1211.3 287.38 1214.93 289.171C1215.98 289.685 1217.08 289.928 1218.17 289.928C1220.87 289.928 1223.48 288.423 1224.76 285.831C1226.55 282.197 1225.05 277.796 1221.42 276.006C1220.37 275.493 1219.27 275.25 1218.18 275.25Z" fill="#FFA2A2" fill-opacity="0.4"/>
<path d="M967.259 160.508L975.682 169.422L973.603 181.509L965.182 172.593L967.259 160.508ZM965.305 154.041L961.948 173.572L975.556 187.979L978.915 168.445L965.305 154.041Z" fill="#FFA2A2" fill-opacity="0.4"/>
<path d="M1417.34 286.098L1433.66 294.181L1437 312.09L1420.67 304.009L1417.34 286.098ZM1411.28 278.091L1416.66 307.038L1443.05 320.096L1437.67 291.155L1411.28 278.091Z" fill="#FFA2A2" fill-opacity="0.4"/>
<path d="M1222.33 169.446L1223.61 180.229L1215.75 187.724L1214.47 176.941L1222.33 169.446ZM1224.35 163.816L1211.65 175.928L1213.72 193.352L1226.42 181.242L1224.35 163.816Z" fill="#FFA2A2" fill-opacity="0.4"/>
<path d="M1110.22 57.0481L1118.83 61.8166L1120.18 71.564L1111.57 66.7975L1110.22 57.0481ZM1107.15 52.5768L1109.33 68.3304L1123.25 76.0373L1121.06 60.2857L1107.15 52.5768Z" fill="#FFA2A2" fill-opacity="0.4"/>
<path d="M1145.99 305.851L1141.97 314.096L1132.95 315.823L1136.98 307.578L1145.99 305.851ZM1150.01 302.779L1135.45 305.57L1128.94 318.895L1143.5 316.104L1150.01 302.779Z" fill="#FFA2A2" fill-opacity="0.4"/>
<path d="M1242.58 0.0665593L1232.42 15.3287L1214.12 16.356L1224.28 1.09388L1242.58 0.0665593ZM1251.35 -4.9487L1221.77 -3.28839L1205.35 21.3713L1234.93 19.713L1251.35 -4.9487Z" fill="#FFA2A2" fill-opacity="0.4"/>
<path d="M1380.98 0.984665C1380.96 0.984665 1380.95 0.984667 1380.93 0.982645C1380.18 0.954332 1379.6 0.327425 1379.63 -0.418796C1379.67 -1.37938 1379.33 -2.2611 1378.68 -2.8961C1378.03 -3.53514 1377.15 -3.8587 1376.17 -3.80006C1374.44 -3.71512 1372.83 -4.29551 1371.63 -5.47247C1370.43 -6.64944 1369.8 -8.25311 1369.86 -9.98621C1369.9 -10.9508 1369.56 -11.8305 1368.91 -12.4675C1368.26 -13.1066 1367.37 -13.42 1366.41 -13.3715C1365.66 -13.3796 1365.02 -13.9013 1364.98 -14.6455C1364.94 -15.3918 1365.51 -16.0308 1366.25 -16.0733C1367.99 -16.1542 1369.61 -15.5778 1370.81 -14.3988C1372.01 -13.2219 1372.63 -11.6202 1372.57 -9.88711C1372.53 -8.9245 1372.87 -8.04279 1373.52 -7.40375C1374.17 -6.76876 1375.05 -6.45531 1376.02 -6.50182C1377.78 -6.57866 1379.38 -6.00636 1380.58 -4.82534C1381.78 -3.64838 1382.4 -2.04674 1382.33 -0.31567C1382.31 0.412352 1381.7 0.984665 1380.98 0.984665Z" fill="#FFA2A2" fill-opacity="0.4"/>
<path d="M1351.79 260.026C1351.12 260.026 1350.57 259.486 1350.57 258.815C1350.56 258.137 1351.1 257.581 1351.78 257.573C1352.65 257.563 1353.43 257.217 1353.98 256.602C1354.53 255.984 1354.78 255.163 1354.68 254.291C1354.51 252.726 1354.98 251.235 1355.99 250.095C1357 248.954 1358.42 248.313 1360 248.291C1360.87 248.281 1361.65 247.935 1362.2 247.316C1362.75 246.699 1363 245.88 1362.9 245.009C1362.83 244.335 1363.32 243.731 1363.99 243.658C1364.66 243.569 1365.27 244.07 1365.34 244.744C1365.51 246.309 1365.05 247.802 1364.03 248.942C1363.03 250.083 1361.6 250.722 1360.03 250.742C1359.15 250.754 1358.37 251.102 1357.82 251.719C1357.28 252.338 1357.03 253.154 1357.12 254.026C1357.29 255.591 1356.83 257.086 1355.81 258.224C1354.8 259.365 1353.38 260.004 1351.81 260.024C1351.8 260.026 1351.8 260.026 1351.79 260.026Z" fill="#FFA2A2" fill-opacity="0.4"/>
<path d="M1035.76 155.309C1035.34 155.309 1034.91 155.169 1034.55 154.88C1032.62 153.323 1031.48 151.143 1031.34 148.749C1031.2 146.356 1032.08 144.065 1033.8 142.295C1034.76 141.313 1035.25 140.055 1035.17 138.759C1035.1 137.46 1034.46 136.271 1033.39 135.406C1031.46 133.846 1030.32 131.668 1030.18 129.272C1030.05 126.88 1030.92 124.588 1032.65 122.819C1033.4 122.054 1034.62 122.044 1035.38 122.789C1036.14 123.533 1036.15 124.754 1035.41 125.517C1034.45 126.499 1033.96 127.753 1034.04 129.048C1034.11 130.346 1034.75 131.537 1035.82 132.405C1037.75 133.96 1038.89 136.138 1039.03 138.53C1039.17 140.924 1038.3 143.218 1036.57 144.991C1035.6 145.976 1035.12 147.228 1035.19 148.524C1035.27 149.82 1035.9 151.011 1036.98 151.879C1037.8 152.548 1037.93 153.764 1037.26 154.593C1036.88 155.064 1036.32 155.309 1035.76 155.309Z" fill="#FFA2A2" fill-opacity="0.4"/>
<path d="M1056.67 291.946C1054.37 291.946 1052.19 291.187 1050.41 289.742C1048.22 287.964 1046.93 285.384 1046.76 282.473C1046.67 280.86 1045.96 279.44 1044.78 278.477C1043.59 277.513 1042.06 277.114 1040.45 277.361C1037.57 277.792 1034.77 277.062 1032.57 275.278C1030.38 273.501 1029.09 270.92 1028.93 268.012C1028.86 266.76 1029.82 265.689 1031.07 265.618C1032.33 265.559 1033.39 266.508 1033.46 267.759C1033.55 269.375 1034.26 270.793 1035.44 271.755C1036.63 272.72 1038.17 273.118 1039.77 272.872C1042.66 272.441 1045.45 273.173 1047.64 274.951C1049.83 276.728 1051.13 279.307 1051.3 282.217C1051.39 283.837 1052.09 285.254 1053.27 286.217C1054.46 287.181 1056 287.582 1057.6 287.333C1058.84 287.139 1060 287.998 1060.19 289.236C1060.38 290.476 1059.53 291.632 1058.29 291.823C1057.74 291.905 1057.2 291.946 1056.67 291.946Z" fill="#FFA2A2" fill-opacity="0.4"/>
<path d="M976.877 69.7624C976.364 69.7624 975.85 69.5642 975.462 69.1678C973.68 67.3478 972.776 64.9918 972.918 62.5307C973.059 60.0737 974.226 57.8411 976.202 56.2414C977.298 55.3536 977.943 54.1281 978.02 52.7975C978.097 51.4668 977.593 50.1766 976.604 49.1675C974.821 47.3474 973.917 44.9895 974.06 42.5283C974.204 40.0693 975.369 37.8367 977.346 36.2391C978.198 35.5515 979.444 35.685 980.133 36.5343C980.821 37.3857 980.689 38.6314 979.838 39.321C978.74 40.2088 978.095 41.4302 978.018 42.7589C977.941 44.0916 978.445 45.3838 979.437 46.397C981.215 48.211 982.119 50.5649 981.977 53.024C981.838 55.4831 980.671 57.7197 978.697 59.3214C977.599 60.2112 976.952 61.4326 976.875 62.7613C976.798 64.0919 977.302 65.3842 978.295 66.3973C979.059 67.1799 979.047 68.4338 978.265 69.2002C977.878 69.5743 977.379 69.7624 976.877 69.7624Z" fill="#FFA2A2" fill-opacity="0.4"/>
<path d="M1370.37 95.3868C1370.09 95.3868 1369.82 95.2897 1369.61 95.0915L1362.26 88.3594C1361.81 87.9387 1361.77 87.2269 1362.2 86.7698C1362.62 86.3088 1363.33 86.2784 1363.79 86.7011L1371.13 93.4333C1371.59 93.8539 1371.62 94.5658 1371.2 95.0228C1370.97 95.2634 1370.67 95.3868 1370.37 95.3868Z" fill="#FFA2A2" fill-opacity="0.4"/>
<path d="M1130.17 149.076C1129.84 149.076 1129.51 148.941 1129.28 148.676L1122.32 140.807C1121.89 140.316 1121.94 139.565 1122.43 139.132C1122.92 138.7 1123.67 138.746 1124.1 139.236L1131.06 147.104C1131.49 147.596 1131.44 148.346 1130.95 148.779C1130.73 148.979 1130.44 149.076 1130.17 149.076Z" fill="#FFA2A2" fill-opacity="0.4"/>
<path d="M1237.2 68.1114C1236.87 68.1114 1236.54 67.9759 1236.31 67.711L1229.35 59.8423C1228.92 59.3509 1228.97 58.6006 1229.46 58.1679C1229.95 57.7351 1230.7 57.7816 1231.13 58.271L1238.09 66.1397C1238.52 66.6311 1238.47 67.3814 1237.98 67.8142C1237.76 68.0144 1237.48 68.1114 1237.2 68.1114Z" fill="#FFA2A2" fill-opacity="0.4"/>
<path d="M1288.79 284.664C1288.34 284.664 1287.9 284.401 1287.7 283.956L1283.43 274.33C1283.16 273.727 1283.43 273.026 1284.03 272.759C1284.63 272.492 1285.34 272.763 1285.6 273.363L1289.88 282.989C1290.15 283.592 1289.87 284.294 1289.27 284.561C1289.12 284.631 1288.95 284.664 1288.79 284.664Z" fill="#FFA2A2" fill-opacity="0.4"/>
<path d="M1284.1 209.483C1283.06 209.483 1282.18 208.668 1282.12 207.609C1282.05 206.511 1282.89 205.568 1283.99 205.503L1301.57 204.472C1302.68 204.424 1303.61 205.247 1303.67 206.345C1303.74 207.443 1302.9 208.385 1301.8 208.45L1284.22 209.481C1284.18 209.483 1284.14 209.483 1284.1 209.483Z" fill="#FFA2A2" fill-opacity="0.4"/>
<path d="M1168.95 233.464C1168.5 233.464 1168.07 233.164 1167.94 232.705L1165.29 223.735C1165.13 223.176 1165.45 222.588 1166.01 222.424C1166.56 222.254 1167.16 222.58 1167.32 223.14L1169.97 232.111C1170.13 232.669 1169.81 233.257 1169.25 233.421C1169.15 233.45 1169.05 233.464 1168.95 233.464Z" fill="#FFA2A2" fill-opacity="0.4"/>
<path d="M1422.23 50.5243L1419.02 47.3332L1435.23 31.0255L1451.53 47.2401L1448.34 50.4515L1435.25 37.4321L1422.23 50.5243Z" fill="#FFA2A2" fill-opacity="0.4"/>
<path d="M1352.04 177.932L1349.13 176.27L1355.92 164.403L1344.06 157.616L1345.72 154.706L1360.5 163.157L1352.04 177.932Z" fill="#FFA2A2" fill-opacity="0.4"/>
<path d="M1257.6 336.09L1248.8 323.783L1251.22 322.05L1258.29 331.933L1268.17 324.859L1269.91 327.285L1257.6 336.09Z" fill="#FFA2A2" fill-opacity="0.4"/>
<path d="M1353.67 328.001L1347.51 316.454L1335.97 322.612L1334.46 319.781L1348.84 312.114L1356.5 326.493L1353.67 328.001Z" fill="#FFA2A2" fill-opacity="0.4"/>
<path d="M1425.21 201.285L1409.39 185.605L1412.48 182.488L1425.18 195.081L1437.77 182.377L1440.89 185.467L1425.21 201.285Z" fill="#FFA2A2" fill-opacity="0.4"/>
<path d="M-0.567358 533.265L-0.211448 530.531C-2.27822 530.26 -4.11847 529.202 -5.39048 527.546C-6.6625 525.891 -7.21257 523.839 -6.9436 521.772C-6.67262 519.703 -5.61295 517.861 -3.95872 516.591C-2.30652 515.319 -0.257931 514.767 1.8149 515.038L2.17282 512.304C-0.626013 511.932 -3.39856 512.682 -5.63722 514.403C-7.87588 516.124 -9.30967 518.611 -9.6757 521.412C-10.0417 524.211 -9.29552 526.986 -7.57658 529.222C-5.85563 531.465 -3.36619 532.899 -0.567358 533.265Z" fill="#FFA2A2" fill-opacity="0.4"/>
<path d="M239.829 407.052C241.817 407.052 243.714 406.336 245.214 405.004C246.838 403.562 247.803 401.576 247.932 399.406C248.062 397.24 247.34 395.151 245.898 393.527C244.456 391.903 242.468 390.939 240.3 390.807L240.173 392.925C241.774 393.02 243.245 393.734 244.308 394.935C245.374 396.136 245.908 397.679 245.813 399.281C245.718 400.884 245.004 402.353 243.803 403.418C242.604 404.482 241.06 405.016 239.457 404.921L239.329 407.038C239.499 407.048 239.665 407.052 239.829 407.052Z" fill="#FFA2A2" fill-opacity="0.4"/>
<path d="M381.675 438.244C384.46 438.244 387.186 436.859 388.775 434.331L386.927 433.17C386.047 434.567 384.674 435.54 383.062 435.906C381.455 436.274 379.792 435.989 378.393 435.109C375.505 433.293 374.633 429.463 376.452 426.573L374.603 425.413C372.144 429.322 373.323 434.499 377.23 436.958C378.611 437.829 380.152 438.244 381.675 438.244Z" fill="#FFA2A2" fill-opacity="0.4"/>
<path d="M154.124 397.549C152.961 397.549 151.831 397.798 150.759 398.284C148.779 399.183 147.27 400.799 146.506 402.838C145.744 404.874 145.818 407.087 146.718 409.062C148.037 411.962 150.949 413.837 154.136 413.837C155.297 413.837 156.429 413.59 157.499 413.103C161.586 411.246 163.4 406.407 161.542 402.324C160.221 399.424 157.311 397.549 154.124 397.549ZM154.124 393.919C158.597 393.919 162.874 396.484 164.848 400.819C167.54 406.739 164.925 413.718 159.004 416.409C157.422 417.127 155.768 417.467 154.138 417.467C149.665 417.467 145.386 414.903 143.414 410.567C140.724 404.65 143.339 397.667 149.256 394.977C150.836 394.259 152.494 393.919 154.124 393.919Z" fill="#FFA2A2" fill-opacity="0.4"/>
<path d="M125.614 505.713C121.889 505.713 118.528 508.067 117.25 511.57C115.57 516.18 117.954 521.301 122.565 522.981C123.55 523.341 124.575 523.523 125.61 523.523C129.337 523.523 132.699 521.169 133.977 517.667C134.792 515.432 134.686 513.014 133.683 510.858C132.678 508.706 130.897 507.07 128.662 506.255C127.677 505.895 126.652 505.713 125.614 505.713ZM125.616 501.741C127.081 501.741 128.569 501.994 130.023 502.524C136.703 504.957 140.145 512.344 137.71 519.026C135.807 524.251 130.87 527.495 125.614 527.495C124.152 527.495 122.662 527.242 121.21 526.713C114.532 524.28 111.09 516.89 113.523 510.211C115.426 504.983 120.361 501.741 125.616 501.741Z" fill="#FFA2A2" fill-opacity="0.4"/>
<path d="M191.455 468.851L183.231 477.943L195.441 479.068L203.666 469.974L191.455 468.851ZM190.228 465.705L209.959 467.517L196.669 482.212L176.939 480.398L190.228 465.705Z" fill="#FFA2A2" fill-opacity="0.4"/>
<path d="M290.741 462.616L281.825 465.759L278.988 474.776L287.904 471.634L290.741 462.616ZM294.361 458.871L289.777 473.446L275.368 478.522L279.952 463.951L294.361 458.871Z" fill="#FFA2A2" fill-opacity="0.4"/>
<path d="M332.002 393.228L320 405.708L322.78 422.798L334.784 410.318L332.002 393.228ZM334.843 384.12L339.339 411.738L319.941 431.906L315.447 404.29L334.843 384.12Z" fill="#FFA2A2" fill-opacity="0.4"/>
<path d="M366.93 512.611C367.225 512.611 367.523 512.549 367.806 512.415C368.843 511.932 369.29 510.696 368.807 509.661C367.678 507.246 365.703 505.495 363.241 504.731C360.78 503.968 358.164 504.292 355.872 505.637C354.598 506.385 353.162 506.567 351.832 506.154C350.499 505.74 349.421 504.773 348.794 503.432C347.666 501.02 345.688 499.268 343.227 498.506C340.77 497.742 338.151 498.063 335.86 499.412C334.873 499.992 334.543 501.262 335.124 502.249C335.704 503.238 336.976 503.564 337.961 502.985C339.235 502.235 340.669 502.049 341.997 502.464C343.33 502.878 344.412 503.847 345.039 505.19C346.165 507.598 348.141 509.347 350.6 510.112C353.057 510.878 355.676 510.559 357.971 509.212C359.249 508.464 360.681 508.28 362.01 508.688C363.343 509.103 364.42 510.071 365.049 511.414C365.401 512.169 366.149 512.611 366.93 512.611Z" fill="#FFA2A2" fill-opacity="0.4"/>
<path d="M378.7 582.807C378.781 582.807 378.862 582.805 378.941 582.802C379.79 582.774 380.456 582.064 380.427 581.217C380.401 580.368 379.697 579.721 378.842 579.731C377.728 579.781 376.747 579.379 376.029 578.637C375.309 577.894 374.949 576.883 375.018 575.787C375.139 573.813 374.474 571.973 373.143 570.604C371.815 569.233 369.986 568.531 368.029 568.574C366.925 568.602 365.934 568.222 365.214 567.48C364.494 566.738 364.134 565.724 364.203 564.626C364.255 563.779 363.612 563.051 362.765 562.996C361.914 562.936 361.19 563.589 361.135 564.436C361.012 566.408 361.677 568.25 363.01 569.619C364.338 570.988 366.17 571.702 368.126 571.646C369.216 571.591 370.219 571.999 370.937 572.742C371.657 573.486 372.017 574.499 371.95 575.595C371.825 577.565 372.49 579.405 373.821 580.778C375.099 582.089 376.824 582.807 378.7 582.807Z" fill="#FFA2A2" fill-opacity="0.4"/>
<path d="M75.1923 472.147C76.1953 472.147 77.2105 471.965 78.2034 471.599C79.1883 471.235 79.6939 470.141 79.3299 469.156C78.9658 468.17 77.8718 467.664 76.8869 468.028C75.6169 468.495 74.2904 468.428 73.1559 467.84C72.0173 467.247 71.1983 466.196 70.8504 464.879C70.2255 462.519 68.7271 460.618 66.63 459.526C64.5288 458.432 62.1142 458.295 59.8209 459.136C58.5469 459.605 57.2203 459.541 56.0858 458.952C54.9493 458.36 54.1323 457.308 53.7824 455.993C53.5135 454.978 52.4679 454.372 51.4568 454.639C50.4396 454.907 49.8349 455.949 50.1039 456.964C50.7288 459.33 52.2293 461.235 54.3304 462.327C56.4296 463.413 58.8442 463.553 61.1354 462.707C62.4095 462.242 63.7381 462.311 64.8726 462.902C66.0091 463.494 66.8261 464.544 67.1739 465.856C67.8008 468.222 69.3014 470.125 71.4025 471.217C72.5876 471.838 73.8798 472.147 75.1923 472.147Z" fill="#FFA2A2" fill-opacity="0.4"/>
<path d="M259.696 530.717C260.34 530.717 260.922 530.274 261.074 529.621C261.25 528.86 260.776 528.102 260.014 527.926L247.832 525.109C247.081 524.923 246.313 525.404 246.137 526.167C245.961 526.927 246.434 527.685 247.197 527.861L259.379 530.678C259.486 530.705 259.591 530.717 259.696 530.717Z" fill="#FFA2A2" fill-opacity="0.4"/>
<path d="M6.74505 423.324C7.35173 423.324 7.89978 422.911 8.04942 422.296C8.22334 421.576 7.77843 420.85 7.0585 420.679L-4.47861 417.906C-5.19652 417.728 -5.92249 418.177 -6.09641 418.895C-6.2683 419.615 -5.82544 420.341 -5.10551 420.513L6.4316 423.285C6.53473 423.314 6.64191 423.324 6.74505 423.324Z" fill="#FFA2A2" fill-opacity="0.4"/>
<path d="M67.0401 404.16L82.826 390.929L80.2193 387.82L67.5436 398.446L56.9186 385.768L53.8103 388.375L67.0401 404.16Z" fill="#FFA2A2" fill-opacity="0.4"/>
<path d="M53.8519 571.753L55.8681 560.173L67.4476 562.193L67.9431 559.354L53.5243 556.84L51.0126 571.259L53.8519 571.753Z" fill="#FFA2A2" fill-opacity="0.4"/>
</g>
</svg>
