<svg width="385" height="381" viewBox="0 0 385 381" fill="none" xmlns="http://www.w3.org/2000/svg">
<circle cx="190.306" cy="190.306" r="190.306" fill="#FBF3D5"/>
<path d="M383.998 80.1078C385.659 81.0753 385.089 83.2821 383.503 83.9008C366.098 90.7931 347.926 98.0321 334.711 111.817C325.563 121.362 318.994 132.692 307.986 140.13C308.061 140.154 308.134 140.179 308.209 140.205C310.663 146.006 312.846 151.833 314.779 157.535C323.284 182.749 330.87 214.979 321.349 240.863C313.316 262.655 294.646 278.721 273.797 287.894C246.921 299.745 216.377 301.207 187.394 300.834C158.659 300.487 129.23 296.619 103.569 282.884C81.5296 271.107 63.3559 252.092 56.2406 227.77C48.5552 201.465 58.4961 177.269 69.8263 153.69C72.38 148.408 75.0574 142.954 77.8848 137.499C79.051 137.276 54.4556 126.839 44.7866 115.657C32.712 101.748 24.4079 83.2033 5.11864 78.096C3.58119 77.6985 3.20995 75.3942 4.6724 74.6255C40.2249 56.0318 86.2901 55.9324 115.123 86.6495L115.072 86.252C116.04 85.4345 117.007 84.5907 117.999 83.822C137.262 68.6501 163.79 61.8797 192.499 62.0297C201.029 61.9303 209.359 62.2528 217.415 63.194C217.663 63.119 217.961 63.1697 218.184 63.269C236.232 65.4758 252.895 70.855 267.223 81.9378C268.562 82.9783 269.876 84.0939 271.19 85.2113C298.934 50.7294 350.23 60.1004 383.998 80.1078ZM341.032 100.811C352.189 92.3061 365.205 86.7788 378.146 81.5721C342.916 62.1591 302.356 56.6055 272.553 88.1925C272.553 88.2169 270.62 89.9775 268.884 88.2169C264.769 84.5477 260.306 81.2252 255.471 78.4241C253.958 77.556 252.52 76.7873 251.084 76.0448C251.059 76.1929 251.035 76.3429 250.936 76.491C235.49 103.514 221.308 131.083 208.639 159.521C207.994 160.959 206.185 159.991 206.035 158.802C204.002 142.762 207.647 126.051 209.779 110.135C211.738 95.5816 213.671 80.9797 216.274 66.5258C212.109 66.1039 207.497 65.7571 202.341 65.4346C199.142 104.186 195.126 142.886 190.863 181.538C190.739 182.678 188.903 183.175 188.706 181.836C182.905 143.407 178.046 104.433 176.707 65.5583C172.32 66.0289 167.93 66.7227 163.567 67.6658C169.046 98.259 171.626 129.623 174.08 160.563C174.204 162.076 172.121 162.076 171.65 160.886C160.492 132.672 147.7 105.301 133.445 78.5254C126.974 81.9715 118.545 86.732 115.123 90.6731C86.4382 62.7572 45.4559 60.1285 10.4491 76.0954C20.7874 80.6084 28.1766 88.2694 35.1926 97.4659C48.3827 114.772 60.5548 130.812 83.0427 135.026C79.1016 141.521 70.4488 159.993 65.589 171.571C54.6562 197.629 53.3907 223.486 69.2826 248.057C83.1908 269.527 106.421 283.262 130.595 290.254C156.18 297.668 183.378 298.337 209.831 297.195C236.26 296.079 264.45 292.211 286.837 277.013C309.225 261.839 322.687 239.378 321.572 211.932C320.629 188.033 314.333 164.009 304.763 142.018C303.177 138.647 304.763 137.308 306.747 136.142C322.339 127.065 326.777 111.644 341.032 100.811ZM248.309 74.9761C248.384 74.8767 248.457 74.828 248.507 74.7286C239.011 70.1425 230.384 68.0594 218.334 66.7207C216.425 82.0427 214.044 97.2653 212.111 112.563C210.426 125.926 207.673 139.785 208.367 153.346C220.417 126.595 233.63 100.389 248.309 74.9761ZM199.319 65.2321C198.252 65.1571 197.211 65.1083 196.096 65.0333C190.394 64.6865 184.493 64.8346 178.542 65.3802C179.98 83.8014 181.047 102.223 182.956 120.593C183.897 130.015 185.015 139.386 186.203 148.783C186.997 154.931 187.814 161.081 188.706 167.228C188.781 167.774 189.005 169.287 189.201 170.922C189.696 163.758 191.68 152.203 191.903 149.947C192.771 141.047 193.564 132.12 194.357 123.22C196.12 103.884 197.731 84.5702 199.319 65.2321ZM172.32 155.898C171.575 155.898 163.271 80.6778 161.957 68.0332C153.006 70.0919 144.229 73.1649 136.098 77.2054C143.361 91.0143 150.18 105.048 156.675 119.279C157.939 122.033 171.178 155.898 172.32 155.898Z" fill="#333333"/>
<path d="M378.146 81.5702C365.203 86.7769 352.188 92.3061 341.032 100.809C326.777 111.644 322.339 127.064 306.743 136.138C304.759 137.303 303.173 138.641 304.759 142.014C314.329 164.005 320.627 188.029 321.568 211.929C322.684 239.374 309.222 261.836 286.833 277.01C264.445 292.208 236.257 296.074 209.828 297.191C183.374 298.331 156.176 297.662 130.591 290.25C106.418 283.259 83.1872 269.523 69.279 248.053C53.387 223.484 54.6507 197.625 65.5853 171.567C70.4452 159.989 79.098 141.519 83.0391 135.023C60.553 130.808 48.3791 114.768 35.1889 97.4622C28.1729 88.2638 20.7838 80.6028 10.4454 76.0917C45.4523 60.1247 86.4346 62.7534 115.119 90.6693C118.541 86.7282 126.971 81.9677 133.441 78.5216C147.696 105.297 160.489 132.668 171.647 160.882C172.117 162.072 174.2 162.072 174.076 160.559C171.622 129.617 169.044 98.2553 163.564 67.662C167.927 66.7189 172.316 66.0252 176.703 65.5546C178.042 104.429 182.902 143.404 188.703 181.832C188.902 183.171 190.735 182.676 190.859 181.534C195.123 142.882 199.141 104.182 202.337 65.4308C207.493 65.7533 212.106 66.1002 216.27 66.522C213.668 80.9759 211.733 95.5779 209.775 110.131C207.643 126.047 203.999 142.759 206.031 158.799C206.179 159.989 207.99 160.955 208.635 159.517C221.304 131.08 235.486 103.511 250.932 76.4873C251.031 76.3392 251.056 76.1892 251.08 76.041C252.518 76.7854 253.956 77.5541 255.467 78.4204C260.301 81.2215 264.765 84.5439 268.881 88.2131C270.617 89.9737 272.55 88.2131 272.55 88.1887C302.356 56.6055 342.916 62.159 378.146 81.5702Z" fill="#F0C95D"/>
<path d="M248.506 74.7286C248.457 74.828 248.382 74.8767 248.307 74.9761C233.63 100.389 220.416 126.595 208.367 153.345C207.673 139.783 210.426 125.924 212.111 112.561C214.045 97.2634 216.426 82.0409 218.334 66.7189C230.383 68.0595 239.011 70.1425 248.506 74.7286Z" fill="#E17E45"/>
<path d="M196.096 65.0352C197.211 65.1102 198.254 65.1589 199.319 65.2339C197.733 84.572 196.12 103.886 194.359 123.224C193.566 132.124 192.773 141.051 191.905 149.951C191.682 152.206 189.698 163.76 189.203 170.926C189.005 169.289 188.782 167.778 188.708 167.232C187.816 161.084 186.999 154.935 186.205 148.787C185.015 139.389 183.899 130.019 182.958 120.597C181.049 102.226 179.983 83.8052 178.544 65.3839C184.492 64.8365 190.392 64.6883 196.096 65.0352Z" fill="#E17E45"/>
<path d="M161.955 68.0351C163.269 80.6797 171.575 155.9 172.318 155.9C171.178 155.9 157.939 122.033 156.673 119.283C150.178 105.052 143.359 91.0199 136.096 77.2092C144.229 73.1668 153.006 70.0919 161.955 68.0351Z" fill="#E17E45"/>
<path opacity="0.4" d="M208.898 72.3925C211.007 72.475 213.115 72.6137 215.222 72.7599C215.571 70.6806 215.903 68.5976 216.278 66.5239C212.111 66.102 207.501 65.7552 202.345 65.4327C202.157 67.707 201.942 69.9775 201.747 72.2518C204.134 72.2593 206.52 72.2987 208.898 72.3925Z" fill="#F0C95D"/>
<path opacity="0.4" d="M177.084 73.8399C176.954 71.0781 176.803 68.3163 176.707 65.5546C172.32 66.0252 167.93 66.7189 163.567 67.662C164.072 70.48 164.527 73.3112 164.985 76.1404C168.982 75.2123 173.013 74.4155 177.084 73.8399Z" fill="#F0C95D"/>
<path opacity="0.4" d="M32.6202 71.0293C47.9628 67.1426 64.5597 70.8812 78.9236 76.6635C92.7475 82.2283 106.183 90.1518 116.934 100.582C123.131 94.8916 130.044 90.0899 137.455 86.175C136.128 83.6195 134.798 81.064 133.443 78.5197C126.972 81.9658 118.543 86.7263 115.121 90.6674C86.4364 62.7515 45.4541 60.1228 10.4473 76.0898C12.5809 77.0197 14.5609 78.1166 16.4658 79.3016C21.1213 75.3661 26.6336 72.5443 32.6202 71.0293Z" fill="#F0C95D"/>
<path opacity="0.4" d="M353.961 74.8673C346.887 79.0859 340.66 84.3358 335.007 90.2999C330.097 95.4804 325.239 100.728 320.049 105.633C315.579 109.857 310.811 113.767 305.652 117.121C299.83 120.903 293.575 123.929 287.176 126.595C287.459 127.962 287.744 129.327 288.029 130.692C291.033 145.046 294.083 159.408 296.084 173.944C298.071 188.38 299.112 203.053 297.664 217.591C296.266 231.64 292.465 245.46 285.327 257.713C277.117 271.805 265.026 282.833 251.102 291.137C250.202 291.675 249.28 292.176 248.371 292.697C262.048 289.714 275.225 284.895 286.837 277.013C309.225 261.839 322.687 239.378 321.572 211.932C320.629 188.033 314.333 164.009 304.763 142.018C303.177 138.647 304.763 137.308 306.747 136.142C322.34 127.067 326.778 111.646 341.034 100.813C352.189 92.3099 365.207 86.7807 378.148 81.574C371.698 78.021 365.07 74.9386 358.364 72.4562C356.867 73.2174 355.392 74.0142 353.961 74.8673Z" fill="#F0C95D"/>
<path opacity="0.4" d="M240.592 75.8742C242.769 76.2567 244.934 76.6973 247.096 77.1416C247.508 76.4235 247.893 75.6923 248.307 74.9742C248.382 74.8748 248.455 74.8261 248.506 74.7267C239.011 70.1406 230.383 68.0576 218.333 66.7189C218.076 68.787 217.793 70.8494 217.519 72.9137C225.253 73.5286 232.955 74.5336 240.592 75.8742Z" fill="#E17E45"/>
<path opacity="0.4" d="M198.732 72.28C198.925 69.9307 199.126 67.5832 199.319 65.2339C198.254 65.1589 197.211 65.1102 196.096 65.0352C190.394 64.6884 184.494 64.8365 178.543 65.3821C178.756 68.1214 178.953 70.8606 179.154 73.5999C185.647 72.7731 192.194 72.355 198.732 72.28Z" fill="#E17E45"/>
<path opacity="0.4" d="M145.995 82.1402C151.478 79.8547 157.131 78.0641 162.877 76.6298C162.461 72.8087 162.139 69.7975 161.955 68.0351C153.006 70.0938 144.229 73.1668 136.096 77.2073C137.433 79.7497 138.739 82.3071 140.046 84.8645C142.002 83.9026 143.98 82.9802 145.995 82.1402Z" fill="#E17E45"/>
<path d="M123.386 127.326C122.914 126.081 120.988 126.552 121.352 127.887C122.625 132.568 123.034 136.978 122.342 141.626C119.934 138.639 118.279 135.428 117.193 131.58C116.781 130.118 114.874 130.57 114.713 131.916C114.145 136.678 113.126 141.281 111.677 145.798C110.623 140.818 109.538 135.846 108.49 130.864C108.3 129.96 107.187 129.84 106.581 130.36C103.658 132.865 101.217 135.664 99.1619 138.789C99.9963 134.824 101.622 131.2 103.801 127.538C103.994 127.212 103.54 126.854 103.272 127.131C98.8788 131.672 96.8558 137.574 96.432 143.801C96.3608 144.844 97.932 145.249 98.4045 144.335C100.553 140.173 103.294 136.577 106.662 133.41C107.805 139.262 108.898 145.123 110.091 150.967C110.374 152.36 112.198 152.056 112.62 150.967C114.4 146.387 115.682 141.724 116.52 136.935C117.938 139.991 119.805 142.759 122.207 145.314C122.842 145.991 124.1 145.672 124.312 144.757C125.685 138.864 125.54 133.018 123.386 127.326Z" fill="#333333"/>
<path d="M271.372 127.675C268.828 122.091 265.984 116.684 262.847 111.427C264.201 112.22 265.554 113.011 266.908 113.804C268.215 114.569 269.394 112.546 268.093 111.777C265.378 110.174 262.663 108.569 259.948 106.966C258.942 106.372 257.67 107.576 258.317 108.599C261.33 113.371 264.09 118.261 266.61 123.287C261.503 118.795 256.172 114.578 250.587 110.673C249.739 110.08 248.5 111.067 248.826 112.027C250.328 116.455 251.312 120.936 252.046 125.513C249.739 122.774 247.208 120.351 244.002 118.478C243.565 118.223 243.023 118.866 243.443 119.202C247.131 122.161 250.461 125.326 252.709 129.554C253.169 130.418 254.629 130.037 254.577 129.047C254.325 124.159 253.414 119.434 252.119 114.758C258.182 119.219 263.981 123.977 269.484 129.132C270.525 130.107 271.925 128.888 271.372 127.675Z" fill="#333333"/>
<path d="M79.2424 215.628C77.3056 216.777 75.4701 218.129 73.6552 219.5C74.8364 216.609 76.2088 213.807 77.8044 211.109C78.2206 210.406 77.5156 209.304 76.6663 209.63C73.507 210.841 70.3459 212.049 67.1904 213.269C68.5253 209.943 70.7359 207.185 73.6926 205.01C74.2214 204.62 73.7676 203.782 73.1677 204.11C68.8928 206.452 66.1217 210.052 64.6348 214.672C64.4173 215.345 65.143 216.136 65.8404 215.877C68.7822 214.78 71.7165 213.657 74.6507 212.54C72.892 215.697 71.4052 218.948 70.1884 222.387C69.879 223.265 71.0452 224.211 71.8252 223.645C74.7164 221.543 77.7631 219.552 80.4349 217.173C81.273 216.421 80.1912 215.064 79.2424 215.628Z" fill="#333333"/>
<path d="M313.375 217.428C311.125 214.272 309.044 210.38 306.192 207.753C305.395 207.018 304.356 207.933 304.763 208.856C305.676 210.926 307.105 212.898 308.577 214.807C306.513 213.762 304.448 212.718 302.382 211.679C301.471 211.222 300.207 212.208 300.871 213.191C302.099 215.006 303.314 216.837 304.55 218.654C302.853 217.685 301.109 216.809 299.251 216.069C298.78 215.881 298.456 216.659 298.906 216.888C301.996 218.459 304.936 220.338 307.454 222.736C308.241 223.486 309.546 222.53 308.976 221.56C307.769 219.507 306.445 217.52 305.108 215.542C307.353 216.682 309.595 217.823 311.839 218.963C312.752 219.425 314.076 218.412 313.375 217.428Z" fill="#333333"/>
<path d="M105.664 97.1059C106.035 97.5765 101.35 102.065 99.5891 104.023C96.2179 107.767 90.7131 115.7 89.92 119.742C86.5733 121.032 82.5065 118.924 79.3829 117.683C71.3994 114.509 64.1603 109.527 58.3087 103.205C51.2177 95.4953 47.5484 83.867 36.6157 80.6196C35.4007 80.2728 35.5001 78.6359 36.6157 78.2403C50.6739 73.4067 64.4828 73.6036 78.3911 78.8609C79.0117 79.1084 79.5067 80.0759 78.8373 80.5971C78.7136 80.6965 70.2595 85.7045 68.0039 87.1182C81.541 83.2746 93.3905 86.6213 99.5647 89.3493C94.9786 91.3817 91.78 94.0854 91.135 94.481C94.3824 94.7547 97.9279 95.2253 100.705 95.7447C103.481 96.2378 105.489 96.7834 105.664 97.1059ZM93.6643 106.874C95.9948 103.353 98.871 100.428 102.043 97.6759C98.0516 97.1059 92.1512 95.9153 88.1595 96.7084C87.837 93.7329 91.5568 90.2136 96.4654 89.8911C88.5063 85.7269 72.3669 87.6356 67.9289 88.8749C66.6146 89.2462 66.144 87.5606 67.0852 86.8425C68.3489 85.8751 74.9693 82.2058 76.6305 79.9746C65.6471 74.7679 51.0189 75.0417 38.7962 79.1309C38.7962 79.1309 46.4816 81.064 51.1933 89.1974C57.2174 99.5846 74.3 115.379 87.2914 117.71C89.0032 115.156 89.995 112.403 93.6643 106.874Z" fill="#333333"/>
<path d="M102.043 97.6759C98.8691 100.428 95.9929 103.353 93.6643 106.874C89.995 112.404 89.0032 115.156 87.2932 117.71C74.3018 115.379 57.2193 99.5865 51.1952 89.1975C46.4853 81.0659 38.7981 79.131 38.7981 79.131C51.0208 75.0399 65.649 74.768 76.6324 79.9747C74.9712 82.2059 68.3508 85.8751 67.0871 86.8426C66.144 87.5607 66.6165 89.2481 67.9308 88.875C72.3688 87.6357 88.5082 85.727 96.4673 89.8912C91.5587 90.2137 87.8389 93.7349 88.1613 96.7085C92.1512 95.9154 98.0516 97.106 102.043 97.6759Z" fill="#DD87A8"/>
<path opacity="0.4" d="M88.1595 96.7085C87.837 93.7329 91.5569 90.2137 96.4655 89.8912C88.5064 85.7269 72.3669 87.6356 67.929 88.875C66.6147 89.2462 66.144 87.5607 67.0853 86.8426C68.349 85.8751 74.9694 82.2058 76.6305 79.9746C65.6472 74.768 51.019 75.0417 38.7963 79.131C38.7963 79.131 41.8862 79.9147 45.3473 82.5546C51.0696 81.4727 57.255 82.5171 62.9942 82.5471C64.1041 82.5527 64.5803 83.8801 63.8716 84.6639C62.9079 85.7251 62.5835 87.1988 62.1673 88.5319C61.9292 89.2969 61.6592 90.0468 61.348 90.7762C67.3477 90.9337 73.3269 91.6011 79.3323 91.6255C80.3167 91.6293 80.8154 92.6642 80.4029 93.4911C79.4879 95.3191 78.5749 97.1472 77.6618 98.9734C82.0079 99.1759 86.2827 99.8921 90.5557 100.747C91.555 100.948 91.6431 102.161 91.1032 102.819C88.4408 106.066 86.4814 109.957 84.689 113.731C84.2353 114.687 83.7984 115.653 83.3784 116.626C84.7096 117.093 86.024 117.481 87.2914 117.708C89.0013 115.154 89.9932 112.402 93.6624 106.872C95.993 103.351 98.8691 100.426 102.042 97.674C98.0517 97.1059 92.1512 95.9154 88.1595 96.7085Z" fill="#DD87A8"/>
<path opacity="0.4" d="M79.8872 110.577C77.0373 108.712 74.5324 105.774 71.9938 103.473C69.7082 101.401 67.5745 99.2078 65.1277 97.3216C63.924 96.3935 62.4335 98.1522 63.131 99.3184C64.8765 102.24 67.3027 104.482 69.9669 106.565C72.935 108.884 76.038 109.842 79.3172 111.558C79.9641 111.895 80.4966 110.979 79.8872 110.577Z" fill="white"/>
<path d="M308.566 88.4287C307.698 87.66 300.929 83.0739 300.905 83.0739C300.16 82.504 300.16 81.2646 301.176 80.9909C307.746 79.1816 314.168 78.066 321.011 78.1391C323.293 78.1635 327.804 78.0641 333.605 79.7253C331.82 78.5103 326.936 75.7092 325.028 74.693C323.963 74.0724 324.533 72.6343 325.622 72.5106C338.538 71.32 350.29 73.3037 362.217 78.3866C363.332 78.8572 362.961 80.6421 361.894 80.8915C345.927 84.6095 336.382 88.305 321.953 106.205C315.655 114.014 313.2 118.898 305.515 128.567C304.698 129.608 303.085 128.517 302.69 127.427C298.128 114.683 290.244 104.173 280.376 95.0229C279.583 94.3029 278.567 92.7673 281.045 91.9236C287.443 89.7412 293.765 88.0556 300.533 87.9806C301.004 87.9825 307.649 88.0312 308.566 88.4287ZM343.027 84.4614C345.11 83.6439 359.142 79.2547 359.166 79.0072C349.72 74.198 329.415 73.6018 327.804 73.8999C330.755 75.9323 336.159 80.0234 337.35 80.7921C337.747 81.5852 336.855 82.5771 335.962 82.3783C328.822 80.7921 321.707 79.9728 314.417 80.6684C300.781 81.9584 306.087 84.1389 312.831 89.2706C313.799 89.9887 313.253 91.4774 311.987 91.2543C301.773 89.295 292.475 90.0899 282.658 93.0392C287.219 97.2541 291.386 101.692 295.055 106.676C298.055 110.716 302.221 118.253 306.608 124.229C314.912 109.602 331.226 89.0493 343.027 84.4614Z" fill="#333333"/>
<path d="M337.25 80.6197C337.299 80.6684 337.325 80.719 337.349 80.794C336.159 80.0253 330.755 75.9342 327.804 73.9018C329.416 73.6037 349.72 74.1999 359.166 79.0091C359.142 79.2566 345.11 83.6458 343.027 84.4633C331.226 89.0493 314.912 109.602 306.606 124.231C302.217 118.255 298.053 110.718 295.053 106.677C291.383 101.694 287.219 97.256 282.656 93.0411C292.473 90.0918 301.771 89.2968 311.985 91.2561C313.249 91.4792 313.795 89.9924 312.829 89.2725C306.085 84.1408 300.781 81.9583 314.415 80.6703C321.705 79.9765 328.82 80.794 335.96 82.3802C336.852 82.579 337.747 81.5871 337.349 80.794C337.674 81.0153 337.696 80.9909 337.25 80.6197Z" fill="#DD87A8"/>
<path d="M337.25 80.6197C337.696 80.9909 337.672 81.0171 337.35 80.794C337.325 80.719 337.301 80.6684 337.25 80.6197Z" fill="#333333"/>
<path opacity="0.4" d="M351.387 77.7998C346.255 79.4722 341.197 81.3771 336.446 83.9589C331.293 86.76 326.807 90.4818 322.211 94.0873C314.288 100.301 306.921 107.161 300.331 114.766C302.29 117.891 304.42 121.255 306.606 124.231C314.912 109.602 331.224 89.0493 343.027 84.4633C345.11 83.6458 359.142 79.2566 359.166 79.0091C357.647 78.2347 355.829 77.5822 353.871 77.0123C353.044 77.271 352.214 77.5298 351.387 77.7998Z" fill="#DD87A8"/>
<path opacity="0.4" d="M303.68 93.7517C300.08 92.7898 296.214 93.3148 292.807 94.7379C291.669 95.2141 291.622 97.269 293.131 97.134C296.519 96.8322 299.868 96.9578 303.258 96.8753C305.024 96.834 305.45 94.226 303.68 93.7517Z" fill="white"/>
<path d="M368.055 291.293C368.203 291.392 368.079 291.615 367.931 291.516C328.462 269.797 285.322 258.02 240.299 256.633C237.447 256.533 237.447 252.071 240.299 252.195C285.595 254.055 329.454 267.492 368.055 291.293Z" fill="#333333"/>
<path d="M317.602 303.144C317.651 303.169 317.602 303.219 317.552 303.193C306.915 292.78 295.114 283.928 281.752 277.31C268.166 270.592 254.207 268.062 240.025 263.426C238.388 262.88 238.563 260.152 240.447 260.278C269.257 262.336 298.215 283.013 317.602 303.144Z" fill="#333333"/>
<path d="M276.522 304.211C276.721 304.434 276.423 304.732 276.224 304.509C263.284 290.451 249.177 276.147 230.283 270.817C227.877 270.147 228.969 266.279 231.299 267.099C250.663 273.963 263.63 288.938 276.522 304.211Z" fill="#333333"/>
<path d="M152.336 267.095C154.667 266.277 155.758 270.144 153.353 270.813C134.461 276.143 120.354 290.449 107.411 304.505C107.212 304.729 106.916 304.43 107.113 304.207C120.007 288.938 132.972 273.963 152.336 267.095Z" fill="#333333"/>
<path d="M143.187 260.278C145.071 260.154 145.245 262.88 143.633 263.426C129.426 268.062 115.469 270.592 101.882 277.31C88.5192 283.928 76.7164 292.78 66.0818 303.193C66.0331 303.217 66.0068 303.169 66.0331 303.144C85.4461 283.013 114.378 262.336 143.187 260.278Z" fill="#333333"/>
<path d="M143.337 252.195C146.189 252.071 146.189 256.533 143.337 256.633C98.314 258.02 55.1737 269.797 15.7045 291.516C15.5545 291.615 15.4307 291.392 15.5807 291.293C54.1818 267.492 98.0403 254.055 143.337 252.195Z" fill="#333333"/>
<path d="M271.018 180.345C271.961 178.238 275.01 179.8 274.563 181.834C270.324 201.47 244.812 220.634 224.63 212.452C223.515 211.981 223.713 210.519 224.928 210.369C236.135 208.906 245.828 209.105 255.473 202.087C263.233 196.436 267.225 188.925 271.018 180.345Z" fill="#333333"/>
<path d="M264.201 221.577C264.523 223.015 264.448 224.453 264.002 225.916C263.631 226.759 263.284 227.628 262.911 228.494C262.341 229.461 261.621 230.254 260.828 230.999C260.728 231.122 260.629 231.246 260.556 231.37C259.811 231.915 259.069 232.485 258.349 233.055C255.97 234.593 256.613 233.824 255.672 234.195C254.704 234.319 253.737 234.443 252.795 234.567C251.309 234.617 249.919 234.319 248.629 233.65C247.712 233.376 246.919 232.932 246.25 232.26C245.059 231.492 244.143 230.476 243.473 229.212C243.449 229.212 243.449 229.187 243.425 229.161C243.078 228.293 242.706 227.425 242.333 226.559C241.887 225.096 241.812 223.658 242.135 222.196C242.21 220.758 242.63 219.395 243.425 218.155C243.97 217.263 244.615 216.445 245.333 215.701C245.358 215.65 245.408 215.602 245.457 215.553C246.201 214.983 246.944 214.437 247.664 213.867C247.688 213.843 247.739 213.819 247.763 213.792C248.656 213.222 249.672 212.876 250.664 212.553C252.102 212.107 253.54 212.032 254.978 212.354C256.416 212.429 257.779 212.849 259.02 213.644C259.738 214.214 260.483 214.784 261.203 215.356C262.269 216.324 263.012 217.488 263.458 218.853C263.951 219.693 264.201 220.61 264.201 221.577Z" fill="#333333"/>
<path d="M158.732 210.371C159.923 210.519 160.121 211.981 159.004 212.454C138.822 220.636 113.312 201.47 109.073 181.836C108.626 179.804 111.675 178.242 112.618 180.347C116.411 188.925 120.403 196.438 128.163 202.091C137.832 209.107 147.501 208.908 158.732 210.371Z" fill="#333333"/>
<path d="M141.501 222.196C141.824 223.658 141.749 225.096 141.303 226.559C140.931 227.427 140.585 228.295 140.212 229.161C140.187 229.186 140.187 229.212 140.163 229.212C139.493 230.476 138.577 231.492 137.386 232.26C136.717 232.93 135.924 233.376 135.005 233.65C133.715 234.319 132.327 234.617 130.841 234.567C129.897 234.443 128.932 234.319 127.964 234.195C127.023 233.824 127.666 234.593 125.311 233.055C124.567 232.485 123.823 231.915 123.105 231.37C123.005 231.246 122.906 231.122 122.806 230.999C122.013 230.254 121.293 229.461 120.723 228.494C120.352 227.626 120.005 226.758 119.632 225.916C119.186 224.453 119.111 223.015 119.433 221.577C119.433 220.61 119.681 219.693 120.178 218.851C120.624 217.488 121.368 216.322 122.433 215.354C123.153 214.784 123.896 214.214 124.616 213.642C125.855 212.849 127.22 212.427 128.656 212.352C130.094 212.03 131.532 212.105 132.971 212.551C133.962 212.874 134.979 213.22 135.871 213.79C135.895 213.815 135.946 213.839 135.97 213.865C136.715 214.435 137.433 214.981 138.177 215.551C138.226 215.6 138.277 215.65 138.325 215.699C139.019 216.444 139.664 217.261 140.21 218.153C141.006 219.395 141.428 220.758 141.501 222.196Z" fill="#333333"/>
<path d="M204.691 220.501C205.508 220.775 206.301 221.74 205.93 222.657C203.524 228.732 200.524 234.458 196.559 239.64C194.65 242.119 192.22 245.616 189.022 246.707C189.517 251.145 188.65 256.426 191.6 259.921C195.963 265.128 199.261 260.343 202.782 259.475C204.021 259.153 203.997 260.789 203.08 261.631C200.924 263.664 198.865 264.631 196.311 264.929C194.18 265.177 192.147 264.211 190.61 262.822C188.973 261.309 188.056 259.524 187.535 257.615C187.584 259.846 187.807 262.351 186.121 263.986C182.353 267.631 175.584 266.937 171.517 263.887C170.824 263.366 171.219 262.301 172.112 262.473C177.74 263.613 184.434 265.696 184.458 257.366C184.458 253.772 184.284 250.127 184.458 246.506C180.566 245.044 176.945 240.778 174.665 238.151C171.095 234.06 169.607 231.458 166.558 226.077C165.368 222.953 168.12 221.738 169.607 221.093C169.607 221.093 192.293 216.063 204.691 220.501ZM201.889 223.326C191.129 219.929 180.073 220.351 169.609 224.888C173.079 230.541 176.649 237.433 182.278 240.656C191.873 246.135 198.766 231.012 201.889 223.326Z" fill="#333333"/>
<path d="M169.609 224.888C180.071 220.351 191.129 219.929 201.89 223.326C198.766 231.012 191.874 246.135 182.278 240.656C176.651 237.433 173.079 230.541 169.609 224.888Z" fill="#884941"/>
<path opacity="0.4" d="M169.609 224.888C170.323 226.053 171.049 227.273 171.787 228.499C174.684 227.073 177.879 225.779 181.08 225.835C183.181 225.871 185.152 226.701 186.294 228.524C187.396 230.286 187.531 232.553 187.385 234.57C187.209 237.012 186.676 239.426 185.953 241.793C193.632 242.224 199.178 229.99 201.888 223.325C191.129 219.929 180.071 220.351 169.609 224.888Z" fill="#884941"/>
<path opacity="0.4" d="M182.937 235.078C181.942 234.396 181.166 233.53 180.562 232.487C180.026 231.561 179.662 230.005 178.524 229.744C178.153 229.66 177.656 229.72 177.401 230.041C177.373 230.076 177.344 230.112 177.316 230.146C177.02 230.517 176.756 231.031 176.953 231.524C177.952 234.03 179.737 235.735 182.234 236.749C183.249 237.163 183.74 235.628 182.937 235.078Z" fill="white"/>
</svg>
